rounded.ufo
<glyph name="comma" format="1">
  <advance width="220"/>
  <unicode hex="002C"/>
  <outline>
    <contour>
      <point x="101" y="-155" type="line"/>
      <point x="175" y="123" type="line"/>
      <point x="61" y="123" type="line"/>
      <point x="16" y="-145" type="line"/>
    </contour>
  </outline>
</glyph>
<glyph name="four" format="1">
  <advance width="519"/>
  <unicode hex="0034"/>
  <outline>
    <contour>
      <point x="32" y="168" type="line"/>
      <point x="499" y="168" type="line"/>
      <point x="499" y="254" type="line"/>
      <point x="132" y="254" type="line"/>
      <point x="132" y="259" type="line"/>
      <point x="370" y="736" type="line"/>
      <point x="365" y="740" type="line"/>
      <point x="259" y="750" type="line"/>
      <point x="254" y="750" type="line"/>
      <point x="14" y="238" type="line"/>
      <point x="14" y="234" type="line"/>
    </contour>
    <contour>
      <point x="311" y="0" type="line"/>
      <point x="426" y="0" type="line"/>
      <point x="426" y="493" type="line"/>
      <point x="342" y="493" type="line"/>
      <point x="311" y="238" type="line"/>
    </contour>
  </outline>
</glyph>
<glyph name="five" format="1">
  <advance width="439"/>
  <unicode hex="0035"/>
  <outline>
    <contour>
      <point x="165" y="-12" type="curve" smooth="yes"/>
      <point x="319" y="-12"/>
      <point x="409" y="73"/>
      <point x="409" y="219" type="curve" smooth="yes"/>
      <point x="409" y="377"/>
      <point x="332" y="439"/>
      <point x="138" y="439" type="curve"/>
      <point x="147" y="396" type="line"/>
      <point x="168" y="696" type="line"/>
      <point x="126" y="643" type="line"/>
      <point x="371" y="643" type="line"/>
      <point x="371" y="740" type="line"/>
      <point x="74" y="740" type="line"/>
      <point x="49" y="359" type="line"/>
      <point x="53" y="355" type="line"/>
      <point x="113" y="355" type="line" smooth="yes"/>
      <point x="247" y="355"/>
      <point x="294" y="319"/>
      <point x="294" y="219" type="curve" smooth="yes"/>
      <point x="294" y="132"/>
      <point x="247" y="85"/>
      <point x="157" y="85" type="curve" smooth="yes"/>
      <point x="130" y="85"/>
      <point x="101" y="89"/>
      <point x="66" y="97" type="curve"/>
      <point x="42" y="97" type="line"/>
      <point x="42" y="3" type="line"/>
      <point x="91" y="-7"/>
      <point x="130" y="-12"/>
    </contour>
  </outline>
</glyph>
<glyph name="eight" format="1">
  <advance width="521"/>
  <unicode hex="0038"/>
  <outline>
    <contour>
      <point x="261" y="-3" type="curve" smooth="yes"/>
      <point x="398" y="-3"/>
      <point x="482" y="74"/>
      <point x="482" y="199" type="curve" smooth="yes"/>
      <point x="482" y="333"/>
      <point x="405" y="380"/>
      <point x="297" y="414" type="curve" smooth="yes"/>
      <point x="209" y="441"/>
      <point x="159" y="474"/>
      <point x="159" y="551" type="curve" smooth="yes"/>
      <point x="159" y="626"/>
      <point x="196" y="669"/>
      <point x="261" y="669" type="curve" smooth="yes"/>
      <point x="326" y="669"/>
      <point x="362" y="629"/>
      <point x="362" y="557" type="curve" smooth="yes"/>
      <point x="362" y="477"/>
      <point x="332" y="435"/>
      <point x="256" y="402" type="curve"/>
      <point x="318" y="357" type="line"/>
      <point x="428" y="403"/>
      <point x="464" y="454"/>
      <point x="464" y="557" type="curve" smooth="yes"/>
      <point x="464" y="676"/>
      <point x="386" y="749"/>
      <point x="261" y="749" type="curve" smooth="yes"/>
      <point x="136" y="749"/>
      <point x="57" y="675"/>
      <point x="57" y="557" type="curve" smooth="yes"/>
      <point x="57" y="423"/>
      <point x="134" y="373"/>
      <point x="238" y="339" type="curve" smooth="yes"/>
      <point x="328" y="310"/>
      <point x="377" y="275"/>
      <point x="377" y="189" type="curve" smooth="yes"/>
      <point x="377" y="118"/>
      <point x="332" y="74"/>
      <point x="261" y="74" type="curve" smooth="yes"/>
      <point x="189" y="74"/>
      <point x="144" y="121"/>
      <point x="144" y="196" type="curve" smooth="yes"/>
      <point x="144" y="276"/>
      <point x="183" y="319"/>
      <point x="263" y="356" type="curve"/>
      <point x="189" y="396" type="line"/>
      <point x="85" y="356"/>
      <point x="39" y="289"/>
      <point x="39" y="182" type="curve" smooth="yes"/>
      <point x="39" y="68"/>
      <point x="124" y="-3"/>
    </contour>
  </outline>
</glyph>
<glyph name="greater" format="1">
  <advance width="512"/>
  <unicode hex="003E"/>
  <outline>
    <contour>
      <point x="417" y="341" type="line"/>
      <point x="479" y="341" type="line"/>
      <point x="479" y="406" type="line"/>
      <point x="54" y="591" type="line"/>
      <point x="54" y="499" type="line"/>
    </contour>
    <contour>
      <point x="56" y="139" type="line"/>
      <point x="479" y="325" type="line"/>
      <point x="479" y="389" type="line"/>
      <point x="417" y="389" type="line"/>
      <point x="56" y="232" type="line"/>
    </contour>
  </outline>
</glyph>
<glyph name="question" format="1">
  <advance width="409"/>
  <unicode hex="003F"/>
  <outline>
    <contour>
      <point x="118" y="200" type="line"/>
      <point x="193" y="200" type="line"/>
      <point x="193" y="217" type="line"/>
      <point x="197" y="346" type="line"/>
      <point x="293" y="369"/>
      <point x="382" y="426"/>
      <point x="382" y="553" type="curve" smooth="yes"/>
      <point x="382" y="692"/>
      <point x="290" y="749"/>
      <point x="171" y="749" type="curve" smooth="yes"/>
      <point x="120" y="749"/>
      <point x="71" y="740"/>
      <point x="27" y="725" type="curve"/>
      <point x="36" y="638" type="line"/>
      <point x="68" y="650"/>
      <point x="114" y="659"/>
      <point x="151" y="659" type="curve" smooth="yes"/>
      <point x="216" y="659"/>
      <point x="271" y="629"/>
      <point x="271" y="544" type="curve" smooth="yes"/>
      <point x="271" y="452"/>
      <point x="193" y="422"/>
      <point x="108" y="402" type="curve"/>
      <point x="118" y="217" type="line"/>
    </contour>
    <contour>
      <point x="157" y="-4" type="curve" smooth="yes"/>
      <point x="199" y="-4"/>
      <point x="225" y="20"/>
      <point x="225" y="61" type="curve" smooth="yes"/>
      <point x="225" y="102"/>
      <point x="199" y="126"/>
      <point x="157" y="126" type="curve" smooth="yes"/>
      <point x="114" y="126"/>
      <point x="89" y="102"/>
      <point x="89" y="61" type="curve" smooth="yes"/>
      <point x="89" y="20"/>
      <point x="114" y="-4"/>
    </contour>
  </outline>
</glyph>
<glyph name="B" format="1">
  <advance width="572"/>
  <unicode hex="0042"/>
  <outline>
    <contour>
      <point x="258" y="-10" type="curve" smooth="yes"/>
      <point x="444" y="-10"/>
      <point x="539" y="60"/>
      <point x="539" y="198" type="curve" smooth="yes"/>
      <point x="539" y="298"/>
      <point x="489" y="363"/>
      <point x="404" y="378" type="curve"/>
      <point x="404" y="382" type="line"/>
      <point x="478" y="399"/>
      <point x="518" y="456"/>
      <point x="518" y="546" type="curve" smooth="yes"/>
      <point x="518" y="686"/>
      <point x="436" y="750"/>
      <point x="256" y="750" type="curve" smooth="yes"/>
      <point x="204" y="750"/>
      <point x="152" y="746"/>
      <point x="66" y="736" type="curve"/>
      <point x="66" y="5" type="line"/>
      <point x="117" y="-4"/>
      <point x="197" y="-10"/>
    </contour>
    <contour>
      <point x="275" y="79" type="curve" smooth="yes"/>
      <point x="236" y="79"/>
      <point x="188" y="83"/>
      <point x="172" y="87" type="curve"/>
      <point x="172" y="329" type="line"/>
      <point x="262" y="329" type="line" smooth="yes"/>
      <point x="377" y="329"/>
      <point x="421" y="294"/>
      <point x="421" y="204" type="curve" smooth="yes"/>
      <point x="421" y="121"/>
      <point x="371" y="80"/>
    </contour>
    <contour>
      <point x="172" y="416" type="line"/>
      <point x="172" y="653" type="line"/>
      <point x="207" y="658"/>
      <point x="235" y="660"/>
      <point x="267" y="660" type="curve" smooth="yes"/>
      <point x="357" y="660"/>
      <point x="400" y="621"/>
      <point x="400" y="539" type="curve" smooth="yes"/>
      <point x="400" y="448"/>
      <point x="364" y="416"/>
      <point x="261" y="416" type="curve" smooth="yes"/>
    </contour>
  </outline>
</glyph>
<glyph name="D" format="1">
  <advance width="608"/>
  <unicode hex="0044"/>
  <outline>
    <contour>
      <point x="280" y="783" type="move" name="topUC"/>
    </contour>
    <contour>
      <point x="287" y="0" type="move" name="bottom"/>
    </contour>
    <contour>
      <point x="214" y="-15" type="curve" smooth="yes"/>
      <point x="468" y="-15"/>
      <point x="571" y="97"/>
      <point x="571" y="369" type="curve" smooth="yes"/>
      <point x="571" y="638"/>
      <point x="474" y="750"/>
      <point x="236" y="750" type="curve" smooth="yes"/>
      <point x="191" y="750"/>
      <point x="140" y="745"/>
      <point x="66" y="736" type="curve"/>
      <point x="66" y="-6" type="line"/>
      <point x="127" y="-12"/>
      <point x="172" y="-15"/>
    </contour>
    <contour>
      <point x="250" y="81" type="curve" smooth="yes"/>
      <point x="230" y="81"/>
      <point x="210" y="82"/>
      <point x="178" y="86" type="curve"/>
      <point x="178" y="649" type="line"/>
      <point x="201" y="654"/>
      <point x="224" y="656"/>
      <point x="253" y="656" type="curve" smooth="yes"/>
      <point x="399" y="656"/>
      <point x="453" y="580"/>
      <point x="453" y="370" type="curve" smooth="yes"/>
      <point x="453" y="159"/>
      <point x="394" y="81"/>
    </contour>
  </outline>
</glyph>
<glyph name="E" format="1">
  <advance width="522"/>
  <unicode hex="0045"/>
  <outline>
    <contour>
      <point x="489" y="0" type="move" name="ogonek"/>
    </contour>
    <contour>
      <point x="275" y="783" type="move" name="topUC"/>
    </contour>
    <contour>
      <point x="286" y="0" type="move" name="bottom"/>
    </contour>
    <contour>
      <point x="66" y="0" type="line"/>
      <point x="489" y="0" type="line"/>
      <point x="489" y="98" type="line"/>
      <point x="180" y="98" type="line"/>
      <point x="180" y="642" type="line"/>
      <point x="480" y="642" type="line"/>
      <point x="480" y="740" type="line"/>
      <point x="66" y="740" type="line"/>
    </contour>
    <contour>
      <point x="150" y="324" type="line"/>
      <point x="448" y="324" type="line"/>
      <point x="448" y="422" type="line"/>
      <point x="150" y="422" type="line"/>
    </contour>
  </outline>
</glyph>
<glyph name="Q" format="1">
  <advance width="635"/>
  <unicode hex="0051"/>
  <outline>
    <contour>
      <point x="550" y="-121" type="curve"/>
      <point x="611" y="-29" type="line"/>
      <point x="497" y="-21"/>
      <point x="424" y="-10"/>
      <point x="363" y="12" type="curve"/>
      <point x="363" y="22" type="line"/>
      <point x="521" y="47"/>
      <point x="598" y="161"/>
      <point x="598" y="369" type="curve" smooth="yes"/>
      <point x="598" y="626"/>
      <point x="507" y="750"/>
      <point x="317" y="750" type="curve" smooth="yes"/>
      <point x="127" y="750"/>
      <point x="36" y="627"/>
      <point x="36" y="369" type="curve" smooth="yes"/>
      <point x="36" y="59"/>
      <point x="170" y="-38"/>
    </contour>
    <contour>
      <point x="317" y="84" type="curve" smooth="yes"/>
      <point x="196" y="84"/>
      <point x="151" y="162"/>
      <point x="151" y="369" type="curve" smooth="yes"/>
      <point x="151" y="578"/>
      <point x="197" y="656"/>
      <point x="317" y="656" type="curve" smooth="yes"/>
      <point x="436" y="656"/>
      <point x="483" y="576"/>
      <point x="483" y="369" type="curve" smooth="yes"/>
      <point x="483" y="163"/>
      <point x="437" y="84"/>
    </contour>
  </outline>
</glyph>
<glyph name="U" format="1">
  <advance width="646"/>
  <unicode hex="0055"/>
  <outline>
    <contour>
      <point x="367" y="-3" type="move" name="ogonek"/>
    </contour>
    <contour>
      <point x="319" y="783" type="move" name="topUC"/>
    </contour>
    <contour>
      <point x="324" y="0" type="move" name="bottom"/>
    </contour>
    <contour>
      <point x="323" y="-10" type="curve" smooth="yes"/>
      <point x="514" y="-10"/>
      <point x="586" y="83"/>
      <point x="586" y="287" type="curve" smooth="yes"/>
      <point x="586" y="740" type="line"/>
      <point x="471" y="740" type="line"/>
      <point x="471" y="293" type="line" smooth="yes"/>
      <point x="471" y="147"/>
      <point x="429" y="89"/>
      <point x="323" y="89" type="curve" smooth="yes"/>
      <point x="218" y="89"/>
      <point x="175" y="148"/>
      <point x="175" y="293" type="curve" smooth="yes"/>
      <point x="175" y="740" type="line"/>
      <point x="60" y="740" type="line"/>
      <point x="60" y="287" type="line" smooth="yes"/>
      <point x="60" y="84"/>
      <point x="133" y="-10"/>
    </contour>
  </outline>
</glyph>
<glyph name="g" format="1">
  <advance width="509"/>
  <unicode hex="0067"/>
  <outline>
    <contour>
      <point x="269" y="600" type="move" name="top"/>
    </contour>
    <contour>
      <point x="221" y="-220" type="curve" smooth="yes"/>
      <point x="379" y="-220"/>
      <point x="455" y="-128"/>
      <point x="455" y="69" type="curve" smooth="yes"/>
      <point x="455" y="522" type="line"/>
      <point x="386" y="541"/>
      <point x="332" y="549"/>
      <point x="274" y="549" type="curve" smooth="yes"/>
      <point x="119" y="549"/>
      <point x="35" y="447"/>
      <point x="35" y="260" type="curve" smooth="yes"/>
      <point x="35" y="88"/>
      <point x="92" y="6"/>
      <point x="211" y="6" type="curve" smooth="yes"/>
      <point x="266" y="6"/>
      <point x="311" y="27"/>
      <point x="341" y="66" type="curve"/>
      <point x="346" y="66" type="line"/>
      <point x="346" y="41" type="line" smooth="yes"/>
      <point x="344" y="-84"/>
      <point x="307" y="-132"/>
      <point x="212" y="-132" type="curve" smooth="yes"/>
      <point x="173" y="-132"/>
      <point x="134" y="-126"/>
      <point x="83" y="-111" type="curve"/>
      <point x="75" y="-197" type="line"/>
      <point x="124" y="-212"/>
      <point x="173" y="-220"/>
    </contour>
    <contour>
      <point x="245" y="84" type="curve" smooth="yes"/>
      <point x="179" y="84"/>
      <point x="150" y="141"/>
      <point x="150" y="272" type="curve" smooth="yes"/>
      <point x="150" y="414"/>
      <point x="187" y="471"/>
      <point x="272" y="471" type="curve" smooth="yes"/>
      <point x="295" y="471"/>
      <point x="315" y="467"/>
      <point x="343" y="460" type="curve"/>
      <point x="343" y="217" type="line" smooth="yes"/>
      <point x="343" y="126"/>
      <point x="300" y="84"/>
    </contour>
  </outline>
</glyph>
<glyph name="i" format="1">
  <advance width="224"/>
  <unicode hex="0069"/>
  <outline>
    <contour>
      <point x="168" y="0" type="move" name="ogonek"/>
    </contour>
    <contour>
      <point x="112" y="0" type="move" name="bottom"/>
    </contour>
    <contour>
      <point x="112" y="641" type="curve" smooth="yes"/>
      <point x="158" y="641"/>
      <point x="179" y="662"/>
      <point x="179" y="706" type="curve" smooth="yes"/>
      <point x="179" y="750"/>
      <point x="157" y="770"/>
      <point x="112" y="770" type="curve" smooth="yes"/>
      <point x="67" y="770"/>
      <point x="47" y="750"/>
      <point x="47" y="706" type="curve" smooth="yes"/>
      <point x="47" y="661"/>
      <point x="67" y="641"/>
    </contour>
    <contour>
      <point x="56" y="0" type="line"/>
      <point x="168" y="0" type="line"/>
      <point x="168" y="540" type="line"/>
      <point x="56" y="540" type="line"/>
    </contour>
  </outline>
</glyph>
<glyph name="n" format="1">
  <advance width="505"/>
  <unicode hex="006E"/>
  <outline>
    <contour>
      <point x="8" y="674" type="move" name="apostrophe"/>
    </contour>
    <contour>
      <point x="258" y="600" type="move" name="top"/>
    </contour>
    <contour>
      <point x="254" y="0" type="move" name="bottom"/>
    </contour>
    <contour>
      <point x="56" y="0" type="line"/>
      <point x="168" y="0" type="line"/>
      <point x="168" y="408" type="line"/>
      <point x="209" y="435"/>
      <point x="249" y="451"/>
      <point x="283" y="451" type="curve" smooth="yes"/>
      <point x="321" y="451"/>
      <point x="340" y="429"/>
      <point x="340" y="372" type="curve" smooth="yes"/>
      <point x="340" y="0" type="line"/>
      <point x="452" y="0" type="line"/>
      <point x="452" y="407" type="line" smooth="yes"/>
      <point x="452" y="503"/>
      <point x="413" y="550"/>
      <point x="334" y="550" type="curve" smooth="yes"/>
      <point x="281" y="550"/>
      <point x="236" y="532"/>
      <point x="162" y="482" type="curve"/>
      <point x="158" y="482" type="line"/>
      <point x="151" y="540" type="line"/>
      <point x="56" y="540" type="line"/>
    </contour>
  </outline>
</glyph>
<glyph name="q" format="1">
  <advance width="509"/>
  <unicode hex="0071"/>
  <outline>
    <contour>
      <point x="342" y="-220" type="line"/>
      <point x="454" y="-220" type="line"/>
      <point x="454" y="526" type="line"/>
      <point x="392" y="542"/>
      <point x="335" y="549"/>
      <point x="280" y="549" type="curve" smooth="yes"/>
      <point x="117" y="549"/>
      <point x="34" y="451"/>
      <point x="34" y="260" type="curve" smooth="yes"/>
      <point x="34" y="79"/>
      <point x="91" y="-9"/>
      <point x="209" y="-9" type="curve" smooth="yes"/>
      <point x="265" y="-9"/>
      <point x="309" y="12"/>
      <point x="342" y="53" type="curve"/>
    </contour>
    <contour>
      <point x="245" y="74" type="curve" smooth="yes"/>
      <point x="176" y="74"/>
      <point x="147" y="131"/>
      <point x="147" y="276" type="curve" smooth="yes"/>
      <point x="147" y="417"/>
      <point x="182" y="471"/>
      <point x="272" y="471" type="curve" smooth="yes"/>
      <point x="295" y="471"/>
      <point x="314" y="468"/>
      <point x="342" y="460" type="curve"/>
      <point x="342" y="216" type="line" smooth="yes"/>
      <point x="342" y="117"/>
      <point x="302" y="74"/>
    </contour>
  </outline>
</glyph>
<glyph name="y" format="1">
  <advance width="495"/>
  <unicode hex="0079"/>
  <outline>
    <contour>
      <point x="252" y="600" type="move" name="top"/>
    </contour>
    <contour>
      <point x="238" y="-220" type="line"/>
      <point x="488" y="532" type="line"/>
      <point x="488" y="540" type="line"/>
      <point x="374" y="540" type="line"/>
      <point x="263" y="182" type="line"/>
      <point x="251" y="115" type="line"/>
      <point x="244" y="115" type="line"/>
      <point x="232" y="182" type="line"/>
      <point x="120" y="540" type="line"/>
      <point x="7" y="540" type="line"/>
      <point x="7" y="532" type="line"/>
      <point x="190" y="1" type="line"/>
      <point x="126" y="-191" type="line"/>
      <point x="126" y="-197" type="line"/>
    </contour>
  </outline>
</glyph>
<glyph name="braceleft" format="1">
  <advance width="330"/>
  <unicode hex="007B"/>
  <outline>
    <contour>
      <point x="19" y="316" type="line"/>
      <point x="68" y="316"/>
      <point x="91" y="281"/>
      <point x="91" y="217" type="curve" smooth="yes"/>
      <point x="91" y="-40" type="line" smooth="yes"/>
      <point x="91" y="-126"/>
      <point x="119" y="-154"/>
      <point x="199" y="-154" type="curve" smooth="yes"/>
      <point x="225" y="-154"/>
      <point x="295" y="-151"/>
      <point x="305" y="-149" type="curve"/>
      <point x="305" y="-77" type="line"/>
      <point x="235" y="-77" type="line" smooth="yes"/>
      <point x="196" y="-77"/>
      <point x="183" y="-64"/>
      <point x="183" y="-27" type="curve" smooth="yes"/>
      <point x="183" y="239" type="line" smooth="yes"/>
      <point x="183" y="298"/>
      <point x="155" y="345"/>
      <point x="114" y="357" type="curve"/>
      <point x="155" y="370"/>
      <point x="183" y="417"/>
      <point x="183" y="477" type="curve" smooth="yes"/>
      <point x="183" y="741" type="line" smooth="yes"/>
      <point x="183" y="778"/>
      <point x="196" y="791"/>
      <point x="235" y="791" type="curve" smooth="yes"/>
      <point x="305" y="791" type="line"/>
      <point x="305" y="863" type="line"/>
      <point x="295" y="865"/>
      <point x="225" y="868"/>
      <point x="199" y="868" type="curve" smooth="yes"/>
      <point x="119" y="868"/>
      <point x="91" y="840"/>
      <point x="91" y="754" type="curve" smooth="yes"/>
      <point x="91" y="499" type="line" smooth="yes"/>
      <point x="91" y="435"/>
      <point x="68" y="399"/>
      <point x="19" y="399" type="curve"/>
    </contour>
  </outline>
</glyph>
<glyph name="sterling" format="1">
  <advance width="546"/>
  <unicode hex="00A3"/>
  <outline>
    <contour>
      <point x="37" y="0" type="line"/>
      <point x="499" y="0" type="line"/>
      <point x="499" y="98" type="line"/>
      <point x="258" y="98" type="line"/>
      <point x="258" y="528" type="line"/>
      <point x="258" y="618"/>
      <point x="286" y="651"/>
      <point x="362" y="651" type="curve" smooth="yes"/>
      <point x="400" y="651"/>
      <point x="458" y="642"/>
      <point x="505" y="628" type="curve"/>
      <point x="513" y="720" type="line"/>
      <point x="443" y="738"/>
      <point x="389" y="747"/>
      <point x="341" y="747" type="curve" smooth="yes"/>
      <point x="202" y="747"/>
      <point x="144" y="678"/>
      <point x="144" y="531" type="curve" smooth="yes"/>
      <point x="144" y="99" type="line"/>
      <point x="37" y="99" type="line"/>
    </contour>
    <contour>
      <point x="37" y="325" type="line"/>
      <point x="425" y="325" type="line"/>
      <point x="425" y="415" type="line"/>
      <point x="37" y="415" type="line"/>
    </contour>
  </outline>
</glyph>
<glyph name="logicalnot" format="1">
  <advance width="722"/>
  <unicode hex="00AC"/>
  <outline>
    <contour>
      <point x="45" y="338" type="line"/>
      <point x="557" y="338" type="line"/>
      <point x="557" y="109" type="line"/>
      <point x="667" y="109" type="line"/>
      <point x="667" y="431" type="line"/>
      <point x="45" y="431" type="line"/>
    </contour>
  </outline>
</glyph>
<glyph name="macron" format="1">
  <advance width="385"/>
  <unicode hex="00AF"/>
  <outline>
    <contour>
      <point x="190" y="600" type="move" name="_top"/>
    </contour>
    <contour>
      <point x="47" y="635" type="line"/>
      <point x="333" y="635" type="line"/>
      <point x="333" y="709" type="line"/>
      <point x="47" y="709" type="line"/>
    </contour>
  </outline>
</glyph>
<glyph name="plusminus" format="1">
  <advance width="514"/>
  <unicode hex="00B1"/>
  <outline>
    <contour>
      <point x="52" y="385" type="line"/>
      <point x="461" y="385" type="line"/>
      <point x="461" y="469" type="line"/>
      <point x="52" y="469" type="line"/>
    </contour>
    <contour>
      <point x="53" y="74" type="line"/>
      <point x="462" y="74" type="line"/>
      <point x="462" y="158" type="line"/>
      <point x="53" y="158" type="line"/>
    </contour>
    <contour>
      <point x="215" y="225" type="line"/>
      <point x="299" y="225" type="line"/>
      <point x="299" y="634" type="line"/>
      <point x="215" y="634" type="line"/>
    </contour>
  </outline>
</glyph>
<glyph name="twosuperior" format="1">
  <advance width="367"/>
  <unicode hex="00B2"/>
  <outline>
    <contour>
      <point x="29" y="300" type="line"/>
      <point x="332" y="300" type="line"/>
      <point x="332" y="383" type="line"/>
      <point x="131" y="383" type="line"/>
      <point x="131" y="405" type="line" smooth="yes"/>
      <point x="131" y="449"/>
      <point x="164" y="490"/>
      <point x="233" y="541" type="curve" smooth="yes"/>
      <point x="302" y="590"/>
      <point x="334" y="639"/>
      <point x="334" y="711" type="curve" smooth="yes"/>
      <point x="334" y="805"/>
      <point x="280" y="854"/>
      <point x="175" y="854" type="curve" smooth="yes"/>
      <point x="137" y="854"/>
      <point x="91" y="847"/>
      <point x="40" y="833" type="curve"/>
      <point x="51" y="753" type="line"/>
      <point x="89" y="763"/>
      <point x="123" y="769"/>
      <point x="152" y="769" type="curve" smooth="yes"/>
      <point x="207" y="769"/>
      <point x="235" y="746"/>
      <point x="235" y="702" type="curve" smooth="yes"/>
      <point x="235" y="661"/>
      <point x="213" y="631"/>
      <point x="156" y="590" type="curve" smooth="yes"/>
      <point x="64" y="527"/>
      <point x="29" y="472"/>
      <point x="29" y="387" type="curve" smooth="yes"/>
    </contour>
  </outline>
</glyph>
<glyph name="paragraph" format="1">
  <advance width="509"/>
  <unicode hex="00B6"/>
  <outline>
    <contour>
      <point x="299" y="0" type="line"/>
      <point x="239" y="0" type="line"/>
      <point x="239" y="266" type="line"/>
      <point x="231" y="265"/>
      <point x="223" y="265"/>
      <point x="215" y="265" type="curve" smooth="yes"/>
      <point x="102" y="265"/>
      <point x="30" y="326"/>
      <point x="30" y="505" type="curve" smooth="yes"/>
      <point x="30" y="684"/>
      <point x="104" y="745"/>
      <point x="218" y="745" type="curve" smooth="yes"/>
      <point x="244" y="745"/>
      <point x="270" y="741"/>
      <point x="299" y="735" type="curve"/>
    </contour>
    <contour>
      <point x="433" y="0" type="line"/>
      <point x="356" y="0" type="line"/>
      <point x="356" y="735" type="line"/>
      <point x="433" y="735" type="line"/>
    </contour>
  </outline>
</glyph>
<glyph name="onesuperior" format="1">
  <advance width="291"/>
  <unicode hex="00B9"/>
  <outline>
    <contour>
      <point x="132" y="300" type="line"/>
      <point x="231" y="300" type="line"/>
      <point x="231" y="846" type="line"/>
      <point x="159" y="846" type="line"/>
      <point x="14" y="749" type="line"/>
      <point x="11" y="734" type="line"/>
      <point x="31" y="689" type="line"/>
      <point x="46" y="689" type="line"/>
      <point x="132" y="736" type="line"/>
    </contour>
  </outline>
</glyph>
<glyph name="oslash" format="1">
  <advance width="513"/>
  <unicode hex="00F8"/>
  <outline>
    <contour>
      <point x="258" y="600" type="move" name="top"/>
    </contour>
    <contour>
      <point x="257" y="-10" type="curve" smooth="yes"/>
      <point x="401" y="-10"/>
      <point x="477" y="87"/>
      <point x="477" y="270" type="curve" smooth="yes"/>
      <point x="477" y="453"/>
      <point x="401" y="550"/>
      <point x="257" y="550" type="curve" smooth="yes"/>
      <point x="113" y="550"/>
      <point x="36" y="453"/>
      <point x="36" y="270" type="curve" smooth="yes"/>
      <point x="36" y="88"/>
      <point x="112" y="-10"/>
    </contour>
    <contour>
      <point x="257" y="79" type="curve" smooth="yes"/>
      <point x="179" y="79"/>
      <point x="149" y="129"/>
      <point x="149" y="270" type="curve" smooth="yes"/>
      <point x="149" y="412"/>
      <point x="179" y="462"/>
      <point x="257" y="462" type="curve" smooth="yes"/>
      <point x="334" y="462"/>
      <point x="364" y="412"/>
      <point x="364" y="270" type="curve" smooth="yes"/>
      <point x="364" y="129"/>
      <point x="335" y="79"/>
    </contour>
    <contour>
      <point x="13" y="0" type="line"/>
      <point x="88" y="0" type="line"/>
      <point x="498" y="540" type="line"/>
      <point x="424" y="540" type="line"/>
    </contour>
  </outline>
</glyph>
<glyph name="itilde" format="1">
  <advance width="226"/>
  <unicode hex="0129"/>
  <outline>
    <contour>
      <point x="-23" y="627" type="line"/>
      <point x="-4" y="653"/>
      <point x="19" y="667"/>
      <point x="41" y="667" type="curve" smooth="yes"/>
      <point x="89" y="667"/>
      <point x="128" y="617"/>
      <point x="179" y="617" type="curve" smooth="yes"/>
      <point x="220" y="617"/>
      <point x="265" y="646"/>
      <point x="293" y="703" type="curve"/>
      <point x="262" y="733" type="line"/>
      <point x="244" y="705"/>
      <point x="224" y="692"/>
      <point x="202" y="692" type="curve" smooth="yes"/>
      <point x="154" y="692"/>
      <point x="116" y="742"/>
      <point x="65" y="742" type="curve" smooth="yes"/>
      <point x="24" y="742"/>
      <point x="-22" y="711"/>
      <point x="-52" y="659" type="curve"/>
    </contour>
    <component base="dotlessi" xOffset="1"/>
  </outline>
</glyph>
<glyph name="jcircumflex" format="1">
  <advance width="223"/>
  <unicode hex="0135"/>
  <outline>
    <contour>
      <point x="-33" y="624" type="line"/>
      <point x="113" y="695" type="line"/>
      <point x="259" y="624" type="line"/>
      <point x="259" y="706" type="line"/>
      <point x="114" y="778" type="line"/>
      <point x="-33" y="706" type="line"/>
    </contour>
    <component base="dotlessj"/>
  </outline>
</glyph>
<glyph name="Lslash" format="1">
  <advance width="453"/>
  <unicode hex="0141"/>
  <outline>
    <contour>
      <point x="10" y="223" type="line"/>
      <point x="300" y="430" type="line"/>
      <point x="300" y="522" type="line"/>
      <point x="10" y="315" type="line"/>
    </contour>
    <component base="L" xOffset="20"/>
  </outline>
</glyph>
<glyph name="Eng" format="1">
  <advance width="664"/>
  <unicode hex="014A"/>
  <outline>
    <contour>
      <point x="492" y="-194" type="line"/>
      <point x="552" y="-101"/>
      <point x="599" y="25"/>
      <point x="599" y="89" type="curve"/>
      <point x="599" y="740" type="line"/>
      <point x="496" y="740" type="line"/>
      <point x="496" y="199" type="line"/>
      <point x="488" y="199" type="line"/>
      <point x="447" y="281" type="line"/>
      <point x="165" y="740" type="line"/>
      <point x="66" y="740" type="line"/>
      <point x="66" y="0" type="line"/>
      <point x="169" y="0" type="line"/>
      <point x="169" y="542" type="line"/>
      <point x="177" y="543" type="line"/>
      <point x="218" y="459" type="line"/>
      <point x="477" y="36" type="line"/>
      <point x="466" y="-28"/>
      <point x="444" y="-99"/>
      <point x="415" y="-170" type="curve"/>
    </contour>
  </outline>
</glyph>
<glyph name="tcaron" format="1">
  <advance width="341"/>
  <unicode hex="0165"/>
  <outline>
    <contour>
      <point x="254" y="-6" type="curve" smooth="yes"/>
      <point x="279" y="-6"/>
      <point x="306" y="-3"/>
      <point x="332" y="4" type="curve"/>
      <point x="332" y="88" type="line"/>
      <point x="315" y="84"/>
      <point x="295" y="81"/>
      <point x="281" y="81" type="curve" smooth="yes"/>
      <point x="236" y="81"/>
      <point x="212" y="108"/>
      <point x="212" y="168" type="curve" smooth="yes"/>
      <point x="212" y="444" type="line"/>
      <point x="299" y="444" type="line"/>
      <point x="299" y="540" type="line"/>
      <point x="211" y="540" type="line"/>
      <point x="211" y="697" type="line"/>
      <point x="121" y="684" type="line"/>
      <point x="106" y="540" type="line"/>
      <point x="11" y="540" type="line"/>
      <point x="11" y="444" type="line"/>
      <point x="100" y="444" type="line"/>
      <point x="100" y="143" type="line" smooth="yes"/>
      <point x="100" y="46"/>
      <point x="152" y="-6"/>
    </contour>
    <component base="caron.alt" xOffset="220"/>
  </outline>
</glyph>
<glyph name="Schwa" format="1">
  <advance width="595"/>
  <unicode hex="018F"/>
  <outline>
    <contour>
      <point x="442" y="368" type="curve" smooth="yes"/>
      <point x="442" y="173"/>
      <point x="388" y="83"/>
      <point x="276" y="83" type="curve" smooth="yes"/>
      <point x="177" y="83"/>
      <point x="145" y="153"/>
      <point x="145" y="353" type="curve"/>
      <point x="104" y="330" type="line"/>
      <point x="506" y="330" type="line"/>
      <point x="506" y="412" type="line"/>
      <point x="38" y="412" type="line"/>
      <point x="34" y="382"/>
      <point x="33" y="352"/>
      <point x="33" y="314" type="curve" smooth="yes"/>
      <point x="33" y="96"/>
      <point x="114" y="-10"/>
      <point x="270" y="-10" type="curve" smooth="yes"/>
      <point x="459" y="-10"/>
      <point x="558" y="133"/>
      <point x="558" y="382" type="curve" smooth="yes"/>
      <point x="558" y="624"/>
      <point x="451" y="756"/>
      <point x="253" y="756" type="curve" smooth="yes"/>
      <point x="185" y="756"/>
      <point x="117" y="740"/>
      <point x="60" y="716" type="curve"/>
      <point x="61" y="710"/>
      <point x="66" y="629"/>
      <point x="67" y="622" type="curve"/>
      <point x="127" y="645"/>
      <point x="188" y="657"/>
      <point x="243" y="657" type="curve" smooth="yes"/>
      <point x="384" y="657"/>
      <point x="442" y="579"/>
    </contour>
  </outline>
</glyph>
<glyph name="florin" format="1">
  <advance width="349"/>
  <unicode hex="0192"/>
  <outline>
    <contour>
      <point x="102" y="-220" type="line"/>
      <point x="214" y="-179" type="line"/>
      <point x="214" y="446" type="line"/>
      <point x="318" y="446" type="line"/>
      <point x="318" y="540" type="line"/>
      <point x="214" y="540" type="line"/>
      <point x="214" y="582" type="line" smooth="yes"/>
      <point x="214" y="689"/>
      <point x="240" y="717"/>
      <point x="341" y="726" type="curve"/>
      <point x="335" y="813" type="line"/>
      <point x="158" y="803"/>
      <point x="103" y="747"/>
      <point x="103" y="574" type="curve" smooth="yes"/>
      <point x="103" y="540" type="line"/>
      <point x="28" y="540" type="line"/>
      <point x="28" y="446" type="line"/>
      <point x="102" y="446" type="line"/>
    </contour>
  </outline>
</glyph>
<glyph name="schwa" format="1">
  <advance width="482"/>
  <unicode hex="0259"/>
  <outline>
    <contour>
      <point x="216" y="549" type="curve" smooth="yes"/>
      <point x="163" y="549"/>
      <point x="97" y="538"/>
      <point x="51" y="518" type="curve"/>
      <point x="56" y="432" type="line"/>
      <point x="110" y="451"/>
      <point x="162" y="460"/>
      <point x="207" y="460" type="curve" smooth="yes"/>
      <point x="304" y="460"/>
      <point x="341" y="407"/>
      <point x="341" y="275" type="curve" smooth="yes"/>
      <point x="341" y="140"/>
      <point x="304" y="76"/>
      <point x="224" y="76" type="curve" smooth="yes"/>
      <point x="156" y="76"/>
      <point x="130" y="126"/>
      <point x="130" y="251" type="curve"/>
      <point x="115" y="236" type="line"/>
      <point x="396" y="236" type="line"/>
      <point x="396" y="311" type="line"/>
      <point x="37" y="311" type="line"/>
      <point x="32" y="285"/>
      <point x="32" y="265"/>
      <point x="32" y="234" type="curve" smooth="yes"/>
      <point x="32" y="70"/>
      <point x="92" y="-9"/>
      <point x="219" y="-9" type="curve" smooth="yes"/>
      <point x="368" y="-9"/>
      <point x="448" y="92"/>
      <point x="448" y="278" type="curve" smooth="yes"/>
      <point x="448" y="453"/>
      <point x="367" y="549"/>
    </contour>
  </outline>
</glyph>
<glyph name="ring" format="1">
  <advance width="296"/>
  <unicode hex="02DA"/>
  <outline>
    <contour>
      <point x="146" y="600" type="move" name="_top"/>
    </contour>
    <contour>
      <point x="144" y="603" type="curve" smooth="yes"/>
      <point x="211" y="603"/>
      <point x="253" y="649"/>
      <point x="253" y="711" type="curve" smooth="yes"/>
      <point x="253" y="773"/>
      <point x="212" y="818"/>
      <point x="144" y="818" type="curve" smooth="yes"/>
      <point x="77" y="818"/>
      <point x="36" y="773"/>
      <point x="36" y="711" type="curve" smooth="yes"/>
      <point x="36" y="649"/>
      <point x="78" y="603"/>
    </contour>
    <contour>
      <point x="144" y="652" type="curve" smooth="yes"/>
      <point x="112" y="652"/>
      <point x="93" y="677"/>
      <point x="93" y="711" type="curve" smooth="yes"/>
      <point x="93" y="745"/>
      <point x="111" y="769"/>
      <point x="144" y="769" type="curve" smooth="yes"/>
      <point x="177" y="769"/>
      <point x="197" y="745"/>
      <point x="197" y="711" type="curve" smooth="yes"/>
      <point x="197" y="677"/>
      <point x="177" y="652"/>
    </contour>
  </outline>
</glyph>
<glyph name="uni0311" format="1">
  <advance width="403"/>
  <unicode hex="0311"/>
  <outline>
    <contour>
      <point x="195" y="600" type="move" name="_top"/>
    </contour>
    <contour>
      <point x="40" y="622" type="curve"/>
      <point x="120" y="622" type="line"/>
      <point x="121" y="679"/>
      <point x="152" y="706"/>
      <point x="202" y="706" type="curve" smooth="yes"/>
      <point x="251" y="706"/>
      <point x="282" y="678"/>
      <point x="283" y="622" type="curve"/>
      <point x="363" y="622" type="line"/>
      <point x="359" y="718"/>
      <point x="302" y="771"/>
      <point x="202" y="771" type="curve" smooth="yes"/>
      <point x="101" y="771"/>
      <point x="44" y="718"/>
    </contour>
  </outline>
</glyph>
<glyph name="uni0394" format="1">
  <advance width="602"/>
  <unicode hex="0394"/>
  <outline>
    <contour>
      <point x="-2" y="0" type="line"/>
      <point x="604" y="0" type="line"/>
      <point x="375" y="740" type="line"/>
      <point x="227" y="740" type="line"/>
    </contour>
    <contour>
      <point x="134" y="98" type="line"/>
      <point x="301" y="637" type="line"/>
      <point x="468" y="98" type="line"/>
    </contour>
  </outline>
</glyph>
<glyph name="pi" format="1">
  <advance width="677"/>
  <unicode hex="03C0"/>
  <outline>
    <contour>
      <point x="196" y="-102" type="line"/>
      <point x="298" y="-102" type="line"/>
      <point x="298" y="442" type="line"/>
      <point x="431" y="442" type="line"/>
      <point x="431" y="128" type="line" smooth="yes"/>
      <point x="431" y="40"/>
      <point x="483" y="-7"/>
      <point x="570" y="-7" type="curve" smooth="yes"/>
      <point x="587" y="-7"/>
      <point x="613" y="-5"/>
      <point x="627" y="-1" type="curve"/>
      <point x="627" y="84" type="line"/>
      <point x="618" y="81"/>
      <point x="603" y="80"/>
      <point x="595" y="80" type="curve" smooth="yes"/>
      <point x="557" y="80"/>
      <point x="533" y="104"/>
      <point x="533" y="153" type="curve" smooth="yes"/>
      <point x="533" y="442" type="line"/>
      <point x="658" y="442" type="line"/>
      <point x="658" y="511" type="line"/>
      <point x="629" y="540" type="line"/>
      <point x="174" y="541" type="line" smooth="yes"/>
      <point x="76" y="541"/>
      <point x="18" y="494"/>
      <point x="7" y="399" type="curve"/>
      <point x="92" y="375" type="line"/>
      <point x="101" y="422"/>
      <point x="127" y="442"/>
      <point x="180" y="442" type="curve" smooth="yes"/>
      <point x="196" y="442" type="line"/>
    </contour>
  </outline>
</glyph>
<glyph name="endash" format="1">
  <advance width="519"/>
  <unicode hex="2013"/>
  <outline>
    <contour>
      <point x="55" y="237" type="line"/>
      <point x="465" y="237" type="line"/>
      <point x="465" y="323" type="line"/>
      <point x="55" y="323" type="line"/>
    </contour>
  </outline>
</glyph>
<glyph name="dagger" format="1">
  <advance width="449"/>
  <unicode hex="2020"/>
  <outline>
    <contour>
      <point x="198" y="65" type="line"/>
      <point x="251" y="65" type="line"/>
      <point x="278" y="265" type="line"/>
      <point x="278" y="345" type="line"/>
      <point x="251" y="511" type="line"/>
      <point x="420" y="489" type="line"/>
      <point x="424" y="489" type="line"/>
      <point x="424" y="586" type="line"/>
      <point x="420" y="586" type="line"/>
      <point x="251" y="564" type="line"/>
      <point x="278" y="729" type="line"/>
      <point x="278" y="808" type="line"/>
      <point x="170" y="808" type="line"/>
      <point x="170" y="729" type="line"/>
      <point x="198" y="564" type="line"/>
      <point x="30" y="586" type="line"/>
      <point x="26" y="586" type="line"/>
      <point x="26" y="489" type="line"/>
      <point x="30" y="489" type="line"/>
      <point x="198" y="511" type="line"/>
      <point x="170" y="345" type="line"/>
      <point x="170" y="265" type="line"/>
    </contour>
  </outline>
</glyph>
<glyph name="sevensuperior" format="1">
  <advance width="317"/>
  <unicode hex="2077"/>
  <outline>
    <contour>
      <point x="126" y="290" type="line"/>
      <point x="57" y="302" type="line"/>
      <point x="47" y="324" type="line"/>
      <point x="221" y="806" type="line"/>
      <point x="254" y="760" type="line"/>
      <point x="21" y="760" type="line"/>
      <point x="21" y="832" type="line"/>
      <point x="32" y="840" type="line"/>
      <point x="283" y="840" type="line"/>
      <point x="305" y="800" type="line"/>
      <point x="305" y="772" type="line"/>
      <point x="141" y="301" type="line"/>
    </contour>
  </outline>
</glyph>
<glyph name="oneinferior" format="1">
  <advance width="291"/>
  <unicode hex="2081"/>
  <outline>
    <contour>
      <point x="132" y="-100" type="line"/>
      <point x="231" y="-100" type="line"/>
      <point x="231" y="446" type="line"/>
      <point x="159" y="446" type="line"/>
      <point x="14" y="349" type="line"/>
      <point x="11" y="334" type="line"/>
      <point x="31" y="289" type="line"/>
      <point x="46" y="289" type="line"/>
      <point x="132" y="336" type="line"/>
    </contour>
  </outline>
</glyph>
<glyph name="fourinferior" format="1">
  <advance width="398"/>
  <unicode hex="2084"/>
  <outline>
    <contour>
      <point x="226" y="-100" type="line"/>
      <point x="325" y="-100" type="line"/>
      <point x="325" y="22" type="line"/>
      <point x="379" y="22" type="line"/>
      <point x="379" y="96" type="line"/>
      <point x="325" y="96" type="line"/>
      <point x="325" y="268" type="line"/>
      <point x="262" y="268" type="line"/>
      <point x="235" y="96" type="line"/>
      <point x="109" y="96" type="line"/>
      <point x="280" y="428" type="line"/>
      <point x="275" y="440" type="line"/>
      <point x="193" y="449" type="line"/>
      <point x="182" y="443" type="line"/>
      <point x="12" y="80" type="line"/>
      <point x="28" y="22" type="line"/>
      <point x="226" y="22" type="line"/>
    </contour>
  </outline>
</glyph>
<glyph name="fiveinferior" format="1">
  <advance width="343"/>
  <unicode hex="2085"/>
  <outline>
    <contour>
      <point x="131" y="-108" type="curve" smooth="yes"/>
      <point x="250" y="-108"/>
      <point x="318" y="-45"/>
      <point x="318" y="65" type="curve" smooth="yes"/>
      <point x="318" y="177"/>
      <point x="263" y="225"/>
      <point x="126" y="229" type="curve"/>
      <point x="136" y="363" type="line"/>
      <point x="290" y="363" type="line"/>
      <point x="290" y="446" type="line"/>
      <point x="59" y="446" type="line"/>
      <point x="39" y="163" type="line"/>
      <point x="46" y="157" type="line"/>
      <point x="92" y="157" type="line" smooth="yes"/>
      <point x="186" y="157"/>
      <point x="218" y="132"/>
      <point x="218" y="65" type="curve" smooth="yes"/>
      <point x="218" y="6"/>
      <point x="187" y="-27"/>
      <point x="125" y="-27" type="curve" smooth="yes"/>
      <point x="105" y="-27"/>
      <point x="84" y="-24"/>
      <point x="58" y="-18" type="curve"/>
      <point x="34" y="-18" type="line"/>
      <point x="34" y="-97" type="line"/>
      <point x="74" y="-105"/>
      <point x="104" y="-108"/>
    </contour>
  </outline>
</glyph>
<glyph name="eightinferior" format="1">
  <advance width="403"/>
  <unicode hex="2088"/>
  <outline>
    <contour>
      <point x="201" y="-102" type="curve" smooth="yes"/>
      <point x="307" y="-102"/>
      <point x="372" y="-44"/>
      <point x="372" y="50" type="curve" smooth="yes"/>
      <point x="372" y="114"/>
      <point x="349" y="156"/>
      <point x="297" y="185" type="curve"/>
      <point x="340" y="210"/>
      <point x="358" y="247"/>
      <point x="358" y="309" type="curve" smooth="yes"/>
      <point x="358" y="398"/>
      <point x="298" y="453"/>
      <point x="201" y="453" type="curve" smooth="yes"/>
      <point x="105" y="453"/>
      <point x="44" y="397"/>
      <point x="44" y="309" type="curve" smooth="yes"/>
      <point x="44" y="249"/>
      <point x="64" y="208"/>
      <point x="107" y="179" type="curve"/>
      <point x="55" y="148"/>
      <point x="31" y="103"/>
      <point x="31" y="38" type="curve" smooth="yes"/>
      <point x="31" y="-48"/>
      <point x="96" y="-102"/>
    </contour>
    <contour>
      <point x="201" y="-29" type="curve" smooth="yes"/>
      <point x="149" y="-29"/>
      <point x="116" y="2"/>
      <point x="116" y="51" type="curve" smooth="yes"/>
      <point x="116" y="96"/>
      <point x="134" y="123"/>
      <point x="183" y="149" type="curve"/>
      <point x="203" y="142" type="line" smooth="yes"/>
      <point x="265" y="121"/>
      <point x="287" y="97"/>
      <point x="287" y="50" type="curve" smooth="yes"/>
      <point x="287" y="1"/>
      <point x="254" y="-29"/>
    </contour>
    <contour>
      <point x="216" y="210" type="curve"/>
      <point x="205" y="213" type="line" smooth="yes"/>
      <point x="150" y="231"/>
      <point x="127" y="256"/>
      <point x="127" y="302" type="curve" smooth="yes"/>
      <point x="127" y="349"/>
      <point x="154" y="378"/>
      <point x="201" y="378" type="curve" smooth="yes"/>
      <point x="248" y="378"/>
      <point x="276" y="352"/>
      <point x="276" y="303" type="curve" smooth="yes"/>
      <point x="276" y="257"/>
      <point x="258" y="229"/>
    </contour>
  </outline>
</glyph>
<glyph name="uni20A9" format="1">
  <advance width="977"/>
  <unicode hex="20A9"/>
  <outline>
    <contour>
      <point x="42" y="224" type="line"/>
      <point x="935" y="224" type="line"/>
      <point x="935" y="293" type="line"/>
      <point x="42" y="293" type="line"/>
    </contour>
    <contour>
      <point x="42" y="437" type="line"/>
      <point x="935" y="437" type="line"/>
      <point x="935" y="506" type="line"/>
      <point x="42" y="506" type="line"/>
    </contour>
    <component base="W" xOffset="37"/>
  </outline>
</glyph>
<glyph name="uni20B9" format="1">
  <advance width="553"/>
  <unicode hex="20B9"/>
  <outline>
    <contour>
      <point x="54" y="656" type="line"/>
      <point x="82" y="659"/>
      <point x="100" y="659"/>
      <point x="125" y="659" type="curve" smooth="yes"/>
      <point x="249" y="659"/>
      <point x="295" y="621"/>
      <point x="295" y="507" type="curve" smooth="yes"/>
      <point x="295" y="394"/>
      <point x="250" y="357"/>
      <point x="131" y="357" type="curve" smooth="yes"/>
      <point x="54" y="357" type="line"/>
      <point x="54" y="271" type="line"/>
      <point x="252" y="271" type="line"/>
      <point x="275" y="284" type="line"/>
      <point x="275" y="295" type="line"/>
      <point x="367" y="325"/>
      <point x="413" y="402"/>
      <point x="413" y="510" type="curve" smooth="yes"/>
      <point x="413" y="608"/>
      <point x="379" y="678"/>
      <point x="307" y="716" type="curve"/>
      <point x="53" y="716" type="line"/>
    </contour>
    <contour>
      <point x="299" y="0" type="line"/>
      <point x="427" y="0" type="line"/>
      <point x="257" y="326" type="line"/>
      <point x="154" y="294" type="line"/>
    </contour>
    <contour>
      <point x="53" y="672" type="line"/>
      <point x="512" y="672" type="line"/>
      <point x="532" y="740" type="line"/>
      <point x="53" y="740" type="line"/>
    </contour>
    <contour>
      <point x="53" y="473" type="line"/>
      <point x="480" y="473" type="line"/>
      <point x="500" y="541" type="line"/>
      <point x="53" y="541" type="line"/>
    </contour>
  </outline>
</glyph>
<glyph name="uni20BA" format="1">
  <advance width="533"/>
  <unicode hex="20BA"/>
  <outline>
    <contour>
      <point x="36" y="416" type="line"/>
      <point x="425" y="516" type="line"/>
      <point x="425" y="585" type="line"/>
      <point x="36" y="485" type="line"/>
    </contour>
    <contour>
      <point x="36" y="247" type="line"/>
      <point x="425" y="347" type="line"/>
      <point x="425" y="416" type="line"/>
      <point x="36" y="316" type="line"/>
    </contour>
    <contour>
      <point x="144" y="0" type="line"/>
      <point x="334" y="0" type="line" smooth="yes"/>
      <point x="484" y="0"/>
      <point x="504" y="98"/>
      <point x="504" y="270" type="curve"/>
      <point x="387" y="270" type="line"/>
      <point x="387" y="127"/>
      <point x="379" y="98"/>
      <point x="334" y="98" type="curve" smooth="yes"/>
      <point x="261" y="98" type="line"/>
      <point x="261" y="740" type="line"/>
      <point x="144" y="740" type="line"/>
    </contour>
  </outline>
</glyph>
<glyph name="arrowleft" format="1">
  <advance width="585"/>
  <unicode hex="2190"/>
  <outline>
    <contour>
      <point x="314" y="98" type="line"/>
      <point x="382" y="166" type="line"/>
      <point x="173" y="359" type="line"/>
      <point x="548" y="356" type="line"/>
      <point x="548" y="457" type="line"/>
      <point x="173" y="454" type="line"/>
      <point x="382" y="647" type="line"/>
      <point x="314" y="715" type="line"/>
      <point x="23" y="423" type="line"/>
      <point x="23" y="389" type="line"/>
    </contour>
  </outline>
</glyph>
<glyph name="arrowup" format="1">
  <advance width="668"/>
  <unicode hex="2191"/>
  <outline>
    <contour>
      <point x="284" y="141" type="line"/>
      <point x="385" y="141" type="line"/>
      <point x="382" y="515" type="line"/>
      <point x="575" y="306" type="line"/>
      <point x="643" y="375" type="line"/>
      <point x="351" y="665" type="line"/>
      <point x="317" y="665" type="line"/>
      <point x="26" y="375" type="line"/>
      <point x="94" y="306" type="line"/>
      <point x="287" y="515" type="line"/>
    </contour>
  </outline>
</glyph>
<glyph name="uni2215" format="1">
  <advance width="339"/>
  <unicode hex="2215"/>
  <outline>
    <contour>
      <point x="-1" y="0" type="line"/>
      <point x="80" y="0" type="line"/>
      <point x="340" y="740" type="line"/>
      <point x="260" y="740" type="line"/>
    </contour>
  </outline>
</glyph>
<glyph name="integral" format="1">
  <advance width="333"/>
  <unicode hex="222B"/>
  <outline>
    <contour>
      <point x="98" y="-205" type="curve" smooth="yes"/>
      <point x="181" y="-205"/>
      <point x="248" y="-174"/>
      <point x="248" y="-78" type="curve" smooth="yes"/>
      <point x="248" y="-72"/>
      <point x="247" y="-65"/>
      <point x="247" y="-58" type="curve"/>
      <point x="196" y="616" type="line"/>
      <point x="195" y="619"/>
      <point x="195" y="626"/>
      <point x="195" y="629" type="curve" smooth="yes"/>
      <point x="195" y="677"/>
      <point x="222" y="691"/>
      <point x="254" y="691" type="curve" smooth="yes"/>
      <point x="273" y="691"/>
      <point x="294" y="687"/>
      <point x="312" y="682" type="curve"/>
      <point x="313" y="685"/>
      <point x="325" y="747"/>
      <point x="326" y="753" type="curve"/>
      <point x="284" y="763"/>
      <point x="248" y="769"/>
      <point x="210" y="769" type="curve" smooth="yes"/>
      <point x="139" y="769"/>
      <point x="88" y="731"/>
      <point x="88" y="638" type="curve" smooth="yes"/>
      <point x="88" y="632"/>
      <point x="88" y="624"/>
      <point x="89" y="617" type="curve"/>
      <point x="140" y="-56" type="line"/>
      <point x="140" y="-67" type="line" smooth="yes"/>
      <point x="140" y="-113"/>
      <point x="113" y="-125"/>
      <point x="78" y="-125" type="curve" smooth="yes"/>
      <point x="60" y="-125"/>
      <point x="39" y="-121"/>
      <point x="21" y="-118" type="curve"/>
      <point x="7" y="-190" type="line"/>
      <point x="37" y="-199"/>
      <point x="68" y="-205"/>
    </contour>
  </outline>
</glyph>
<glyph name="commaaccent" format="1">
  <advance width="231"/>
  <unicode hex="F6C3"/>
  <outline>
    <contour>
      <point x="132" y="0" type="move" name="_bottom"/>
    </contour>
    <contour>
      <point x="38" y="-220" type="line"/>
      <point x="126" y="-220" type="line"/>
      <point x="199" y="-68" type="line"/>
      <point x="85" y="-68" type="line"/>
    </contour>
  </outline>
</glyph>
<glyph name="AE.sc" format="1">
  <advance width="716"/>
  <outline>
    <contour>
      <point x="453" y="760" type="move" name="topUC"/>
    </contour>
    <contour>
      <point x="8" y="0" type="line"/>
      <point x="118" y="0" type="line"/>
      <point x="171" y="147" type="line"/>
      <point x="350" y="147" type="line"/>
      <point x="357" y="0" type="line"/>
      <point x="680" y="0" type="line"/>
      <point x="680" y="89" type="line"/>
      <point x="462" y="89" type="line"/>
      <point x="453" y="248" type="line"/>
      <point x="655" y="248" type="line"/>
      <point x="655" y="334" type="line"/>
      <point x="445" y="334" type="line"/>
      <point x="436" y="489" type="line"/>
      <point x="673" y="489" type="line"/>
      <point x="673" y="577" type="line"/>
      <point x="212" y="577" type="line"/>
      <point x="8" y="5" type="line"/>
    </contour>
    <contour>
      <point x="295" y="494" type="line"/>
      <point x="334" y="494" type="line"/>
      <point x="346" y="229" type="line"/>
      <point x="199" y="229" type="line"/>
    </contour>
  </outline>
</glyph>
<glyph name="Aacute.sc" format="1">
  <advance width="532"/>
  <outline>
    <contour>
      <point x="7" y="0" type="line"/>
      <point x="109" y="0" type="line"/>
      <point x="158" y="147" type="line"/>
      <point x="374" y="147" type="line"/>
      <point x="423" y="0" type="line"/>
      <point x="526" y="0" type="line"/>
      <point x="526" y="6" type="line"/>
      <point x="347" y="577" type="line"/>
      <point x="186" y="577" type="line"/>
      <point x="7" y="6" type="line"/>
    </contour>
    <contour>
      <point x="176" y="224" type="line"/>
      <point x="238" y="412" type="line"/>
      <point x="261" y="494" type="line"/>
      <point x="271" y="494" type="line"/>
      <point x="294" y="412" type="line"/>
      <point x="355" y="224" type="line"/>
    </contour>
    <contour>
      <point x="302" y="616" type="line"/>
      <point x="395" y="750" type="line"/>
      <point x="285" y="750" type="line"/>
      <point x="223" y="621" type="line"/>
    </contour>
  </outline>
</glyph>
<glyph name="Adblgrave.sc" format="1">
  <advance width="532"/>
  <outline>
    <contour>
      <point x="7" y="0" type="line"/>
      <point x="109" y="0" type="line"/>
      <point x="158" y="147" type="line"/>
      <point x="374" y="147" type="line"/>
      <point x="423" y="0" type="line"/>
      <point x="526" y="0" type="line"/>
      <point x="526" y="6" type="line"/>
      <point x="347" y="577" type="line"/>
      <point x="186" y="577" type="line"/>
      <point x="7" y="6" type="line"/>
    </contour>
    <contour>
      <point x="176" y="224" type="line"/>
      <point x="238" y="412" type="line"/>
      <point x="261" y="494" type="line"/>
      <point x="271" y="494" type="line"/>
      <point x="294" y="412" type="line"/>
      <point x="355" y="224" type="line"/>
    </contour>
    <contour>
      <point x="168" y="615" type="line"/>
      <point x="230" y="624" type="line"/>
      <point x="168" y="750" type="line"/>
      <point x="75" y="750" type="line"/>
    </contour>
    <contour>
      <point x="315" y="615" type="line"/>
      <point x="376" y="624" type="line"/>
      <point x="314" y="750" type="line"/>
      <point x="222" y="750" type="line"/>
    </contour>
  </outline>
</glyph>
<glyph name="Ainvertedbreve.sc" format="1">
  <advance width="532"/>
  <outline>
    <contour>
      <point x="121" y="632" type="curve"/>
      <point x="197" y="632" type="line"/>
      <point x="197" y="686"/>
      <point x="218" y="709"/>
      <point x="268" y="709" type="curve" smooth="yes"/>
      <point x="317" y="709"/>
      <point x="339" y="686"/>
      <point x="339" y="632" type="curve"/>
      <point x="415" y="632" type="line"/>
      <point x="415" y="713"/>
      <point x="363" y="762"/>
      <point x="268" y="762" type="curve" smooth="yes"/>
      <point x="173" y="762"/>
      <point x="121" y="713"/>
    </contour>
    <contour>
      <point x="7" y="0" type="line"/>
      <point x="109" y="0" type="line"/>
      <point x="158" y="147" type="line"/>
      <point x="374" y="147" type="line"/>
      <point x="423" y="0" type="line"/>
      <point x="526" y="0" type="line"/>
      <point x="526" y="6" type="line"/>
      <point x="347" y="577" type="line"/>
      <point x="186" y="577" type="line"/>
      <point x="7" y="6" type="line"/>
    </contour>
    <contour>
      <point x="176" y="224" type="line"/>
      <point x="238" y="412" type="line"/>
      <point x="261" y="494" type="line"/>
      <point x="271" y="494" type="line"/>
      <point x="294" y="412" type="line"/>
      <point x="355" y="224" type="line"/>
    </contour>
  </outline>
</glyph>
<glyph name="Atilde.sc" format="1">
  <advance width="532"/>
  <outline>
    <contour>
      <point x="7" y="0" type="line"/>
      <point x="109" y="0" type="line"/>
      <point x="158" y="147" type="line"/>
      <point x="374" y="147" type="line"/>
      <point x="423" y="0" type="line"/>
      <point x="526" y="0" type="line"/>
      <point x="526" y="6" type="line"/>
      <point x="347" y="577" type="line"/>
      <point x="186" y="577" type="line"/>
      <point x="7" y="6" type="line"/>
    </contour>
    <contour>
      <point x="176" y="224" type="line"/>
      <point x="238" y="412" type="line"/>
      <point x="261" y="494" type="line"/>
      <point x="271" y="494" type="line"/>
      <point x="294" y="412" type="line"/>
      <point x="355" y="224" type="line"/>
    </contour>
    <contour>
      <point x="137" y="638" type="line"/>
      <point x="158" y="659"/>
      <point x="179" y="668"/>
      <point x="201" y="668" type="curve" smooth="yes"/>
      <point x="244" y="668"/>
      <point x="280" y="637"/>
      <point x="326" y="637" type="curve" smooth="yes"/>
      <point x="363" y="637"/>
      <point x="405" y="665"/>
      <point x="431" y="719" type="curve"/>
      <point x="409" y="736" type="line"/>
      <point x="389" y="714"/>
      <point x="370" y="706"/>
      <point x="349" y="706" type="curve" smooth="yes"/>
      <point x="305" y="706"/>
      <point x="269" y="736"/>
      <point x="224" y="736" type="curve" smooth="yes"/>
      <point x="187" y="736"/>
      <point x="145" y="707"/>
      <point x="117" y="656" type="curve"/>
    </contour>
  </outline>
</glyph>
<glyph name="Ccedilla.sc" format="1">
  <advance width="452"/>
  <outline>
    <contour>
      <point x="241" y="-172" type="curve" smooth="yes"/>
      <point x="307" y="-172"/>
      <point x="341" y="-140"/>
      <point x="341" y="-88" type="curve" smooth="yes"/>
      <point x="341" y="-61"/>
      <point x="333" y="-35"/>
      <point x="317" y="-7" type="curve"/>
      <point x="355" y="-7"/>
      <point x="394" y="-1"/>
      <point x="420" y="8" type="curve"/>
      <point x="420" y="93" type="line"/>
      <point x="388" y="87"/>
      <point x="348" y="83"/>
      <point x="319" y="83" type="curve" smooth="yes"/>
      <point x="197" y="83"/>
      <point x="149" y="130"/>
      <point x="149" y="288" type="curve" smooth="yes"/>
      <point x="149" y="449"/>
      <point x="195" y="494"/>
      <point x="321" y="494" type="curve" smooth="yes"/>
      <point x="352" y="494"/>
      <point x="388" y="491"/>
      <point x="420" y="486" type="curve"/>
      <point x="420" y="573" type="line"/>
      <point x="378" y="580"/>
      <point x="340" y="585"/>
      <point x="305" y="585" type="curve" smooth="yes"/>
      <point x="123" y="585"/>
      <point x="37" y="494"/>
      <point x="37" y="289" type="curve" smooth="yes"/>
      <point x="37" y="110"/>
      <point x="103" y="18"/>
      <point x="244" y="-2" type="curve"/>
      <point x="259" y="-28"/>
      <point x="269" y="-53"/>
      <point x="269" y="-71" type="curve" smooth="yes"/>
      <point x="269" y="-92"/>
      <point x="256" y="-105"/>
      <point x="226" y="-105" type="curve" smooth="yes"/>
      <point x="216" y="-105"/>
      <point x="194" y="-103"/>
      <point x="173" y="-98" type="curve"/>
      <point x="173" y="-163" type="line"/>
      <point x="198" y="-169"/>
      <point x="222" y="-172"/>
    </contour>
  </outline>
</glyph>
<glyph name="Ddotbelow.sc" format="1">
  <advance width="556"/>
  <outline>
    <contour>
      <point x="200" y="-11" type="curve" smooth="yes"/>
      <point x="427" y="-11"/>
      <point x="519" y="74"/>
      <point x="519" y="288" type="curve" smooth="yes"/>
      <point x="519" y="499"/>
      <point x="432" y="585"/>
      <point x="218" y="585" type="curve" smooth="yes"/>
      <point x="177" y="585"/>
      <point x="130" y="581"/>
      <point x="62" y="576" type="curve"/>
      <point x="62" y="-3" type="line"/>
      <point x="117" y="-9"/>
      <point x="160" y="-11"/>
    </contour>
    <contour>
      <point x="235" y="79" type="curve" smooth="yes"/>
      <point x="216" y="79"/>
      <point x="198" y="79"/>
      <point x="169" y="83" type="curve"/>
      <point x="169" y="492" type="line"/>
      <point x="189" y="495"/>
      <point x="210" y="497"/>
      <point x="234" y="497" type="curve" smooth="yes"/>
      <point x="362" y="497"/>
      <point x="407" y="446"/>
      <point x="407" y="289" type="curve" smooth="yes"/>
      <point x="407" y="131"/>
      <point x="358" y="79"/>
    </contour>
    <contour>
      <point x="264" y="-155" type="curve" smooth="yes"/>
      <point x="299" y="-155"/>
      <point x="317" y="-142"/>
      <point x="317" y="-107" type="curve" smooth="yes"/>
      <point x="317" y="-72"/>
      <point x="299" y="-58"/>
      <point x="264" y="-58" type="curve" smooth="yes"/>
      <point x="228" y="-58"/>
      <point x="212" y="-72"/>
      <point x="212" y="-107" type="curve" smooth="yes"/>
      <point x="212" y="-141"/>
      <point x="228" y="-155"/>
    </contour>
  </outline>
</glyph>
<glyph name="Ebreve.sc" format="1">
  <advance width="478"/>
  <outline>
    <contour>
      <point x="252" y="624" type="curve" smooth="yes"/>
      <point x="347" y="624"/>
      <point x="399" y="674"/>
      <point x="399" y="755" type="curve"/>
      <point x="323" y="755" type="line"/>
      <point x="323" y="700"/>
      <point x="301" y="677"/>
      <point x="252" y="677" type="curve" smooth="yes"/>
      <point x="202" y="677"/>
      <point x="181" y="700"/>
      <point x="181" y="755" type="curve"/>
      <point x="105" y="755" type="line"/>
      <point x="105" y="674"/>
      <point x="157" y="624"/>
    </contour>
    <contour>
      <point x="63" y="0" type="line"/>
      <point x="444" y="0" type="line"/>
      <point x="444" y="89" type="line"/>
      <point x="171" y="89" type="line"/>
      <point x="171" y="248" type="line"/>
      <point x="409" y="248" type="line"/>
      <point x="409" y="334" type="line"/>
      <point x="171" y="334" type="line"/>
      <point x="171" y="489" type="line"/>
      <point x="437" y="489" type="line"/>
      <point x="437" y="577" type="line"/>
      <point x="63" y="577" type="line"/>
    </contour>
  </outline>
</glyph>
<glyph name="Ecaron.sc" format="1">
  <advance width="478"/>
  <outline>
    <contour>
      <point x="63" y="0" type="line"/>
      <point x="444" y="0" type="line"/>
      <point x="444" y="89" type="line"/>
      <point x="171" y="89" type="line"/>
      <point x="171" y="248" type="line"/>
      <point x="409" y="248" type="line"/>
      <point x="409" y="334" type="line"/>
      <point x="171" y="334" type="line"/>
      <point x="171" y="489" type="line"/>
      <point x="437" y="489" type="line"/>
      <point x="437" y="577" type="line"/>
      <point x="63" y="577" type="line"/>
    </contour>
    <contour>
      <point x="258" y="617" type="line"/>
      <point x="390" y="674" type="line"/>
      <point x="390" y="748" type="line"/>
      <point x="257" y="692" type="line"/>
      <point x="125" y="748" type="line"/>
      <point x="125" y="674" type="line"/>
    </contour>
  </outline>
</glyph>
<glyph name="Eng.sc" format="1">
  <advance width="603"/>
  <outline>
    <contour>
      <point x="445" y="-156" type="line"/>
      <point x="499" y="-78"/>
      <point x="542" y="26"/>
      <point x="542" y="80" type="curve" smooth="yes"/>
      <point x="542" y="577" type="line"/>
      <point x="444" y="577" type="line"/>
      <point x="444" y="187" type="line"/>
      <point x="437" y="186" type="line"/>
      <point x="401" y="251" type="line"/>
      <point x="156" y="577" type="line"/>
      <point x="63" y="577" type="line"/>
      <point x="63" y="0" type="line"/>
      <point x="161" y="0" type="line"/>
      <point x="161" y="393" type="line"/>
      <point x="168" y="392" type="line"/>
      <point x="205" y="328" type="line"/>
      <point x="427" y="36" type="line"/>
      <point x="418" y="-17"/>
      <point x="399" y="-75"/>
      <point x="373" y="-133" type="curve"/>
    </contour>
  </outline>
</glyph>
<glyph name="Etilde.sc" format="1">
  <advance width="478"/>
  <outline>
    <contour>
      <point x="122" y="638" type="line"/>
      <point x="143" y="659"/>
      <point x="163" y="668"/>
      <point x="185" y="668" type="curve" smooth="yes"/>
      <point x="228" y="668"/>
      <point x="265" y="637"/>
      <point x="310" y="637" type="curve" smooth="yes"/>
      <point x="348" y="637"/>
      <point x="389" y="665"/>
      <point x="415" y="719" type="curve"/>
      <point x="393" y="736" type="line"/>
      <point x="374" y="714"/>
      <point x="355" y="706"/>
      <point x="333" y="706" type="curve" smooth="yes"/>
      <point x="290" y="706"/>
      <point x="254" y="736"/>
      <point x="208" y="736" type="curve" smooth="yes"/>
      <point x="171" y="736"/>
      <point x="130" y="707"/>
      <point x="102" y="656" type="curve"/>
    </contour>
    <contour>
      <point x="63" y="0" type="line"/>
      <point x="444" y="0" type="line"/>
      <point x="444" y="89" type="line"/>
      <point x="171" y="89" type="line"/>
      <point x="171" y="248" type="line"/>
      <point x="409" y="248" type="line"/>
      <point x="409" y="334" type="line"/>
      <point x="171" y="334" type="line"/>
      <point x="171" y="489" type="line"/>
      <point x="437" y="489" type="line"/>
      <point x="437" y="577" type="line"/>
      <point x="63" y="577" type="line"/>
    </contour>
  </outline>
</glyph>
<glyph name="Iacute.sc" format="1">
  <advance width="234"/>
  <outline>
    <contour>
      <point x="63" y="0" type="line"/>
      <point x="171" y="0" type="line"/>
      <point x="171" y="577" type="line"/>
      <point x="63" y="577" type="line"/>
    </contour>
    <contour>
      <point x="153" y="616" type="line"/>
      <point x="246" y="750" type="line"/>
      <point x="136" y="750" type="line"/>
      <point x="74" y="621" type="line"/>
    </contour>
  </outline>
</glyph>
<glyph name="Ibreve.sc" format="1">
  <advance width="234"/>
  <outline>
    <contour>
      <point x="63" y="0" type="line"/>
      <point x="171" y="0" type="line"/>
      <point x="171" y="577" type="line"/>
      <point x="63" y="577" type="line"/>
    </contour>
    <contour>
      <point x="119" y="624" type="curve" smooth="yes"/>
      <point x="213" y="624"/>
      <point x="266" y="674"/>
      <point x="266" y="755" type="curve"/>
      <point x="190" y="755" type="line"/>
      <point x="190" y="700"/>
      <point x="168" y="677"/>
      <point x="119" y="677" type="curve" smooth="yes"/>
      <point x="69" y="677"/>
      <point x="48" y="700"/>
      <point x="48" y="755" type="curve"/>
      <point x="-28" y="755" type="line"/>
      <point x="-28" y="674"/>
      <point x="23" y="624"/>
    </contour>
  </outline>
</glyph>
<glyph name="Imacron.sc" format="1">
  <advance width="234"/>
  <outline>
    <contour>
      <point x="63" y="0" type="line"/>
      <point x="171" y="0" type="line"/>
      <point x="171" y="577" type="line"/>
      <point x="63" y="577" type="line"/>
    </contour>
    <contour>
      <point x="-12" y="654" type="line"/>
      <point x="241" y="654" type="line"/>
      <point x="241" y="727" type="line"/>
      <point x="-12" y="727" type="line"/>
    </contour>
  </outline>
</glyph>
<glyph name="Lcommaaccent.sc" format="1">
  <advance width="400"/>
  <outline>
    <contour>
      <point x="63" y="0" type="line"/>
      <point x="386" y="0" type="line"/>
      <point x="386" y="92" type="line"/>
      <point x="171" y="92" type="line"/>
      <point x="171" y="577" type="line"/>
      <point x="63" y="577" type="line"/>
    </contour>
    <contour>
      <point x="137" y="-172" type="line"/>
      <point x="220" y="-172" type="line"/>
      <point x="286" y="-54" type="line"/>
      <point x="177" y="-54" type="line"/>
    </contour>
  </outline>
</glyph>
<glyph name="Ncommaaccent.sc" format="1">
  <advance width="604"/>
  <outline>
    <contour>
      <point x="63" y="0" type="line"/>
      <point x="160" y="0" type="line"/>
      <point x="160" y="403" type="line"/>
      <point x="167" y="402" type="line"/>
      <point x="209" y="338" type="line"/>
      <point x="449" y="0" type="line"/>
      <point x="541" y="0" type="line"/>
      <point x="541" y="577" type="line"/>
      <point x="444" y="577" type="line"/>
      <point x="444" y="177" type="line"/>
      <point x="437" y="176" type="line"/>
      <point x="395" y="241" type="line"/>
      <point x="155" y="577" type="line"/>
      <point x="63" y="577" type="line"/>
    </contour>
    <contour>
      <point x="225" y="-172" type="line"/>
      <point x="308" y="-172" type="line"/>
      <point x="374" y="-54" type="line"/>
      <point x="265" y="-54" type="line"/>
    </contour>
  </outline>
</glyph>
<glyph name="Ndotaccent.sc" format="1">
  <advance width="604"/>
  <outline>
    <contour>
      <point x="63" y="0" type="line"/>
      <point x="160" y="0" type="line"/>
      <point x="160" y="403" type="line"/>
      <point x="167" y="402" type="line"/>
      <point x="209" y="338" type="line"/>
      <point x="449" y="0" type="line"/>
      <point x="541" y="0" type="line"/>
      <point x="541" y="577" type="line"/>
      <point x="444" y="577" type="line"/>
      <point x="444" y="177" type="line"/>
      <point x="437" y="176" type="line"/>
      <point x="395" y="241" type="line"/>
      <point x="155" y="577" type="line"/>
      <point x="63" y="577" type="line"/>
    </contour>
    <contour>
      <point x="299" y="623" type="curve" smooth="yes"/>
      <point x="341" y="623"/>
      <point x="361" y="641"/>
      <point x="361" y="683" type="curve" smooth="yes"/>
      <point x="361" y="724"/>
      <point x="341" y="741"/>
      <point x="299" y="741" type="curve" smooth="yes"/>
      <point x="257" y="741"/>
      <point x="238" y="724"/>
      <point x="238" y="683" type="curve" smooth="yes"/>
      <point x="238" y="641"/>
      <point x="257" y="623"/>
    </contour>
  </outline>
</glyph>
<glyph name="O.sc" format="1">
  <advance width="579"/>
  <outline>
    <contour>
      <point x="307" y="-10" type="move" name="ogonek"/>
    </contour>
    <contour>
      <point x="307" y="760" type="move" name="topUC"/>
    </contour>
    <contour>
      <point x="307" y="0" type="move" name="bottom"/>
    </contour>
    <contour>
      <point x="290" y="-8" type="curve" smooth="yes"/>
      <point x="460" y="-8"/>
      <point x="543" y="89"/>
      <point x="543" y="288" type="curve" smooth="yes"/>
      <point x="543" y="489"/>
      <point x="460" y="585"/>
      <point x="290" y="585" type="curve" smooth="yes"/>
      <point x="120" y="585"/>
      <point x="37" y="487"/>
      <point x="37" y="288" type="curve" smooth="yes"/>
      <point x="37" y="90"/>
      <point x="120" y="-8"/>
    </contour>
    <contour>
      <point x="290" y="83" type="curve" smooth="yes"/>
      <point x="188" y="83"/>
      <point x="148" y="139"/>
      <point x="148" y="288" type="curve" smooth="yes"/>
      <point x="148" y="439"/>
      <point x="188" y="495"/>
      <point x="290" y="495" type="curve" smooth="yes"/>
      <point x="391" y="495"/>
      <point x="432" y="438"/>
      <point x="432" y="288" type="curve" smooth="yes"/>
      <point x="432" y="139"/>
      <point x="391" y="83"/>
    </contour>
  </outline>
</glyph>
<glyph name="Odblgrave.sc" format="1">
  <advance width="579"/>
  <outline>
    <contour>
      <point x="290" y="-8" type="curve" smooth="yes"/>
      <point x="460" y="-8"/>
      <point x="543" y="89"/>
      <point x="543" y="288" type="curve" smooth="yes"/>
      <point x="543" y="489"/>
      <point x="460" y="585"/>
      <point x="290" y="585" type="curve" smooth="yes"/>
      <point x="120" y="585"/>
      <point x="37" y="487"/>
      <point x="37" y="288" type="curve" smooth="yes"/>
      <point x="37" y="90"/>
      <point x="120" y="-8"/>
    </contour>
    <contour>
      <point x="290" y="83" type="curve" smooth="yes"/>
      <point x="188" y="83"/>
      <point x="148" y="139"/>
      <point x="148" y="288" type="curve" smooth="yes"/>
      <point x="148" y="439"/>
      <point x="188" y="495"/>
      <point x="290" y="495" type="curve" smooth="yes"/>
      <point x="391" y="495"/>
      <point x="432" y="438"/>
      <point x="432" y="288" type="curve" smooth="yes"/>
      <point x="432" y="139"/>
      <point x="391" y="83"/>
    </contour>
    <contour>
      <point x="253" y="624" type="line"/>
      <point x="191" y="750" type="line"/>
      <point x="98" y="750" type="line"/>
      <point x="192" y="615" type="line"/>
    </contour>
    <contour>
      <point x="399" y="624" type="line"/>
      <point x="337" y="750" type="line"/>
      <point x="245" y="750" type="line"/>
      <point x="338" y="615" type="line"/>
    </contour>
  </outline>
</glyph>
<glyph name="P.sc" format="1">
  <advance width="509"/>
  <outline>
    <contour>
      <point x="63" y="0" type="line"/>
      <point x="171" y="0" type="line"/>
      <point x="171" y="181" type="line"/>
      <point x="185" y="180"/>
      <point x="206" y="180"/>
      <point x="218" y="180" type="curve" smooth="yes"/>
      <point x="403" y="180"/>
      <point x="483" y="241"/>
      <point x="483" y="382" type="curve" smooth="yes"/>
      <point x="483" y="525"/>
      <point x="403" y="586"/>
      <point x="217" y="586" type="curve" smooth="yes"/>
      <point x="167" y="586"/>
      <point x="115" y="582"/>
      <point x="63" y="573" type="curve"/>
    </contour>
    <contour>
      <point x="234" y="265" type="curve" smooth="yes"/>
      <point x="215" y="265"/>
      <point x="189" y="267"/>
      <point x="171" y="269" type="curve"/>
      <point x="171" y="494" type="line"/>
      <point x="190" y="497"/>
      <point x="215" y="499"/>
      <point x="236" y="499" type="curve" smooth="yes"/>
      <point x="338" y="499"/>
      <point x="377" y="466"/>
      <point x="377" y="381" type="curve" smooth="yes"/>
      <point x="377" y="296"/>
      <point x="336" y="265"/>
    </contour>
  </outline>
</glyph>
<glyph name="Uinvertedbreve.sc" format="1">
  <advance width="587"/>
  <outline>
    <contour>
      <point x="294" y="-8" type="curve" smooth="yes"/>
      <point x="466" y="-8"/>
      <point x="530" y="66"/>
      <point x="530" y="224" type="curve" smooth="yes"/>
      <point x="530" y="577" type="line"/>
      <point x="421" y="577" type="line"/>
      <point x="421" y="229" type="line" smooth="yes"/>
      <point x="421" y="125"/>
      <point x="386" y="85"/>
      <point x="294" y="85" type="curve" smooth="yes"/>
      <point x="204" y="85"/>
      <point x="166" y="126"/>
      <point x="166" y="229" type="curve" smooth="yes"/>
      <point x="166" y="577" type="line"/>
      <point x="58" y="577" type="line"/>
      <point x="58" y="224" type="line" smooth="yes"/>
      <point x="58" y="67"/>
      <point x="122" y="-8"/>
    </contour>
    <contour>
      <point x="437" y="632" type="line"/>
      <point x="437" y="713"/>
      <point x="385" y="762"/>
      <point x="290" y="762" type="curve" smooth="yes"/>
      <point x="195" y="762"/>
      <point x="144" y="713"/>
      <point x="144" y="632" type="curve"/>
      <point x="219" y="632" type="line"/>
      <point x="219" y="686"/>
      <point x="241" y="709"/>
      <point x="290" y="709" type="curve" smooth="yes"/>
      <point x="340" y="709"/>
      <point x="362" y="686"/>
      <point x="362" y="632" type="curve"/>
    </contour>
  </outline>
</glyph>
<glyph name="Wacute.sc" format="1">
  <advance width="812"/>
  <outline>
    <contour>
      <point x="163" y="0" type="line"/>
      <point x="294" y="0" type="line"/>
      <point x="384" y="326" type="line"/>
      <point x="404" y="425" type="line"/>
      <point x="411" y="425" type="line"/>
      <point x="430" y="326" type="line"/>
      <point x="516" y="0" type="line"/>
      <point x="646" y="0" type="line"/>
      <point x="802" y="577" type="line"/>
      <point x="682" y="577" type="line"/>
      <point x="600" y="213" type="line"/>
      <point x="581" y="130" type="line"/>
      <point x="572" y="130" type="line"/>
      <point x="553" y="213" type="line"/>
      <point x="462" y="577" type="line"/>
      <point x="355" y="577" type="line"/>
      <point x="258" y="213" type="line"/>
      <point x="239" y="130" type="line"/>
      <point x="229" y="130" type="line"/>
      <point x="212" y="213" type="line"/>
      <point x="134" y="577" type="line"/>
      <point x="13" y="577" type="line"/>
    </contour>
    <contour>
      <point x="440" y="616" type="line"/>
      <point x="533" y="750" type="line"/>
      <point x="424" y="750" type="line"/>
      <point x="362" y="621" type="line"/>
    </contour>
  </outline>
</glyph>
<glyph name="Wcircumflex.sc" format="1">
  <advance width="812"/>
  <outline>
    <contour>
      <point x="163" y="0" type="line"/>
      <point x="294" y="0" type="line"/>
      <point x="384" y="326" type="line"/>
      <point x="404" y="425" type="line"/>
      <point x="411" y="425" type="line"/>
      <point x="430" y="326" type="line"/>
      <point x="516" y="0" type="line"/>
      <point x="646" y="0" type="line"/>
      <point x="802" y="577" type="line"/>
      <point x="682" y="577" type="line"/>
      <point x="600" y="213" type="line"/>
      <point x="581" y="130" type="line"/>
      <point x="572" y="130" type="line"/>
      <point x="553" y="213" type="line"/>
      <point x="462" y="577" type="line"/>
      <point x="355" y="577" type="line"/>
      <point x="258" y="213" type="line"/>
      <point x="239" y="130" type="line"/>
      <point x="229" y="130" type="line"/>
      <point x="212" y="213" type="line"/>
      <point x="134" y="577" type="line"/>
      <point x="13" y="577" type="line"/>
    </contour>
    <contour>
      <point x="273" y="623" type="line"/>
      <point x="406" y="679" type="line"/>
      <point x="538" y="623" type="line"/>
      <point x="538" y="697" type="line"/>
      <point x="406" y="753" type="line"/>
      <point x="273" y="697" type="line"/>
    </contour>
  </outline>
</glyph>
<glyph name="Y.sc" format="1">
  <advance width="538"/>
  <outline>
    <contour>
      <point x="260" y="760" type="move" name="topUC"/>
    </contour>
    <contour>
      <point x="215" y="0" type="line"/>
      <point x="324" y="0" type="line"/>
      <point x="324" y="196" type="line"/>
      <point x="536" y="577" type="line"/>
      <point x="417" y="577" type="line"/>
      <point x="288" y="346" type="line"/>
      <point x="274" y="305" type="line"/>
      <point x="265" y="305" type="line"/>
      <point x="251" y="346" type="line"/>
      <point x="123" y="577" type="line"/>
      <point x="1" y="577" type="line"/>
      <point x="215" y="196" type="line"/>
    </contour>
  </outline>
</glyph>
<glyph name="Yacute.sc" format="1">
  <advance width="538"/>
  <outline>
    <contour>
      <point x="215" y="0" type="line"/>
      <point x="324" y="0" type="line"/>
      <point x="324" y="196" type="line"/>
      <point x="536" y="577" type="line"/>
      <point x="417" y="577" type="line"/>
      <point x="288" y="346" type="line"/>
      <point x="274" y="305" type="line"/>
      <point x="265" y="305" type="line"/>
      <point x="251" y="346" type="line"/>
      <point x="123" y="577" type="line"/>
      <point x="1" y="577" type="line"/>
      <point x="215" y="196" type="line"/>
    </contour>
    <contour>
      <point x="305" y="616" type="line"/>
      <point x="398" y="750" type="line"/>
      <point x="289" y="750" type="line"/>
      <point x="227" y="621" type="line"/>
    </contour>
  </outline>
</glyph>
<glyph name="ampersand.sc" format="1">
  <advance width="566"/>
  <outline>
    <contour>
      <point x="252" y="-8" type="curve" smooth="yes"/>
      <point x="342" y="-8"/>
      <point x="409" y="25"/>
      <point x="449" y="88" type="curve"/>
      <point x="513" y="46" type="line"/>
      <point x="518" y="46" type="line"/>
      <point x="557" y="134" type="line"/>
      <point x="557" y="137" type="line"/>
      <point x="491" y="176" type="line"/>
      <point x="497" y="203"/>
      <point x="501" y="234"/>
      <point x="501" y="268" type="curve" smooth="yes"/>
      <point x="501" y="327" type="line"/>
      <point x="408" y="327" type="line"/>
      <point x="408" y="291" type="line"/>
      <point x="408" y="270"/>
      <point x="406" y="244"/>
      <point x="403" y="228" type="curve"/>
      <point x="342" y="265" type="line" smooth="yes"/>
      <point x="234" y="329"/>
      <point x="195" y="373"/>
      <point x="195" y="425" type="curve" smooth="yes"/>
      <point x="195" y="476"/>
      <point x="225" y="500"/>
      <point x="288" y="500" type="curve" smooth="yes"/>
      <point x="322" y="500"/>
      <point x="365" y="492"/>
      <point x="407" y="476" type="curve"/>
      <point x="411" y="476" type="line"/>
      <point x="423" y="557" type="line"/>
      <point x="423" y="561" type="line"/>
      <point x="370" y="579"/>
      <point x="325" y="586"/>
      <point x="280" y="586" type="curve" smooth="yes"/>
      <point x="159" y="586"/>
      <point x="91" y="534"/>
      <point x="91" y="439" type="curve" smooth="yes"/>
      <point x="91" y="394"/>
      <point x="107" y="353"/>
      <point x="148" y="309" type="curve"/>
      <point x="78" y="288"/>
      <point x="37" y="233"/>
      <point x="37" y="161" type="curve" smooth="yes"/>
      <point x="37" y="57"/>
      <point x="120" y="-8"/>
    </contour>
    <contour>
      <point x="259" y="76" type="curve" smooth="yes"/>
      <point x="188" y="76"/>
      <point x="142" y="112"/>
      <point x="142" y="167" type="curve" smooth="yes"/>
      <point x="142" y="210"/>
      <point x="166" y="241"/>
      <point x="208" y="255" type="curve"/>
      <point x="232" y="231"/>
      <point x="259" y="213"/>
      <point x="304" y="183" type="curve" smooth="yes"/>
      <point x="375" y="137" type="line"/>
      <point x="352" y="96"/>
      <point x="314" y="76"/>
    </contour>
  </outline>
</glyph>
<glyph name="bracketleft.sc" format="1">
  <advance width="304"/>
  <outline>
    <contour>
      <point x="73" y="-125" type="line"/>
      <point x="272" y="-125" type="line"/>
      <point x="272" y="-54" type="line"/>
      <point x="157" y="-54" type="line"/>
      <point x="157" y="607" type="line"/>
      <point x="272" y="607" type="line"/>
      <point x="272" y="677" type="line"/>
      <point x="73" y="677" type="line"/>
    </contour>
  </outline>
</glyph>
<glyph name="breve.cap" format="1">
  <advance width="387"/>
  <outline>
    <contour>
      <point x="194" y="783" type="move" name="_topUC"/>
    </contour>
    <contour>
      <point x="195" y="803" type="curve" smooth="yes"/>
      <point x="298" y="803"/>
      <point x="357" y="864"/>
      <point x="357" y="962" type="curve"/>
      <point x="276" y="962" type="line"/>
      <point x="276" y="894"/>
      <point x="250" y="863"/>
      <point x="195" y="863" type="curve" smooth="yes"/>
      <point x="138" y="863"/>
      <point x="113" y="894"/>
      <point x="113" y="962" type="curve"/>
      <point x="33" y="962" type="line"/>
      <point x="33" y="863"/>
      <point x="91" y="803"/>
    </contour>
  </outline>
</glyph>
<glyph name="caron.cap" format="1">
  <advance width="338"/>
  <outline>
    <contour>
      <point x="165" y="783" type="move" name="_topUC"/>
    </contour>
    <contour>
      <point x="26" y="864" type="line"/>
      <point x="172" y="793" type="line"/>
      <point x="318" y="864" type="line"/>
      <point x="318" y="947" type="line"/>
      <point x="172" y="875" type="line"/>
      <point x="26" y="947" type="line"/>
    </contour>
  </outline>
</glyph>
<glyph name="comma.tab" format="1">
  <advance width="270"/>
  <outline>
    <contour>
      <point x="133" y="-155" type="line"/>
      <point x="210" y="123" type="line"/>
      <point x="94" y="123" type="line"/>
      <point x="46" y="-145" type="line"/>
    </contour>
  </outline>
</glyph>
<glyph name="eight.numerator" format="1">
  <advance width="403"/>
  <outline>
    <contour>
      <point x="201" y="198" type="curve" smooth="yes"/>
      <point x="307" y="198"/>
      <point x="372" y="256"/>
      <point x="372" y="350" type="curve" smooth="yes"/>
      <point x="372" y="414"/>
      <point x="349" y="456"/>
      <point x="297" y="485" type="curve"/>
      <point x="340" y="510"/>
      <point x="358" y="547"/>
      <point x="358" y="609" type="curve" smooth="yes"/>
      <point x="358" y="698"/>
      <point x="298" y="753"/>
      <point x="201" y="753" type="curve" smooth="yes"/>
      <point x="105" y="753"/>
      <point x="44" y="697"/>
      <point x="44" y="609" type="curve" smooth="yes"/>
      <point x="44" y="549"/>
      <point x="64" y="508"/>
      <point x="107" y="479" type="curve"/>
      <point x="55" y="448"/>
      <point x="31" y="403"/>
      <point x="31" y="338" type="curve" smooth="yes"/>
      <point x="31" y="252"/>
      <point x="96" y="198"/>
    </contour>
    <contour>
      <point x="201" y="271" type="curve" smooth="yes"/>
      <point x="149" y="271"/>
      <point x="116" y="302"/>
      <point x="116" y="351" type="curve" smooth="yes"/>
      <point x="116" y="396"/>
      <point x="134" y="423"/>
      <point x="183" y="449" type="curve"/>
      <point x="203" y="442" type="line" smooth="yes"/>
      <point x="265" y="421"/>
      <point x="287" y="397"/>
      <point x="287" y="350" type="curve" smooth="yes"/>
      <point x="287" y="301"/>
      <point x="254" y="271"/>
    </contour>
    <contour>
      <point x="216" y="510" type="curve"/>
      <point x="205" y="513" type="line" smooth="yes"/>
      <point x="150" y="531"/>
      <point x="127" y="556"/>
      <point x="127" y="602" type="curve" smooth="yes"/>
      <point x="127" y="649"/>
      <point x="154" y="678"/>
      <point x="201" y="678" type="curve" smooth="yes"/>
      <point x="248" y="678"/>
      <point x="276" y="652"/>
      <point x="276" y="603" type="curve" smooth="yes"/>
      <point x="276" y="557"/>
      <point x="258" y="529"/>
    </contour>
  </outline>
</glyph>
<glyph name="eight.tosf" format="1">
  <advance width="540"/>
  <outline>
    <contour>
      <point x="271" y="-3" type="curve" smooth="yes"/>
      <point x="406" y="-3"/>
      <point x="488" y="66"/>
      <point x="488" y="186" type="curve" smooth="yes"/>
      <point x="488" y="271"/>
      <point x="450" y="323"/>
      <point x="383" y="354" type="curve"/>
      <point x="444" y="387"/>
      <point x="471" y="433"/>
      <point x="471" y="510" type="curve" smooth="yes"/>
      <point x="471" y="622"/>
      <point x="394" y="689"/>
      <point x="271" y="689" type="curve" smooth="yes"/>
      <point x="147" y="689"/>
      <point x="70" y="621"/>
      <point x="70" y="512" type="curve" smooth="yes"/>
      <point x="70" y="430"/>
      <point x="103" y="380"/>
      <point x="159" y="348" type="curve"/>
      <point x="85" y="310"/>
      <point x="52" y="249"/>
      <point x="52" y="171" type="curve" smooth="yes"/>
      <point x="52" y="60"/>
      <point x="135" y="-3"/>
    </contour>
    <contour>
      <point x="270" y="75" type="curve" smooth="yes"/>
      <point x="202" y="75"/>
      <point x="160" y="110"/>
      <point x="160" y="186" type="curve" smooth="yes"/>
      <point x="160" y="242"/>
      <point x="187" y="282"/>
      <point x="245" y="311" type="curve"/>
      <point x="328" y="289"/>
      <point x="381" y="253"/>
      <point x="381" y="177" type="curve" smooth="yes"/>
      <point x="381" y="109"/>
      <point x="339" y="75"/>
    </contour>
    <contour>
      <point x="271" y="610" type="curve" smooth="yes"/>
      <point x="332" y="610"/>
      <point x="367" y="577"/>
      <point x="367" y="510" type="curve" smooth="yes"/>
      <point x="367" y="449"/>
      <point x="343" y="410"/>
      <point x="295" y="384" type="curve"/>
      <point x="214" y="409"/>
      <point x="174" y="441"/>
      <point x="174" y="506" type="curve" smooth="yes"/>
      <point x="174" y="573"/>
      <point x="210" y="610"/>
    </contour>
  </outline>
</glyph>
<glyph name="four.denominator" format="1">
  <advance width="398"/>
  <outline>
    <contour>
      <point x="226" y="0" type="line"/>
      <point x="325" y="0" type="line"/>
      <point x="325" y="122" type="line"/>
      <point x="379" y="122" type="line"/>
      <point x="379" y="196" type="line"/>
      <point x="325" y="196" type="line"/>
      <point x="325" y="368" type="line"/>
      <point x="262" y="368" type="line"/>
      <point x="235" y="196" type="line"/>
      <point x="109" y="196" type="line"/>
      <point x="280" y="528" type="line"/>
      <point x="275" y="540" type="line"/>
      <point x="193" y="549" type="line"/>
      <point x="182" y="543" type="line"/>
      <point x="12" y="180" type="line"/>
      <point x="28" y="122" type="line"/>
      <point x="226" y="122" type="line"/>
    </contour>
  </outline>
</glyph>
<glyph name="hungarumlaut.cap" format="1">
  <advance width="437"/>
  <outline>
    <contour>
      <point x="203" y="783" type="move" name="_topUC"/>
    </contour>
    <contour>
      <point x="140" y="787" type="line"/>
      <point x="244" y="949" type="line"/>
      <point x="146" y="949" type="line"/>
      <point x="75" y="799" type="line"/>
    </contour>
    <contour>
      <point x="302" y="787" type="line"/>
      <point x="406" y="949" type="line"/>
      <point x="309" y="949" type="line"/>
      <point x="237" y="799" type="line"/>
    </contour>
  </outline>
</glyph>
<glyph name="multiply.tab" format="1">
  <advance width="540"/>
  <outline>
    <contour>
      <point x="123" y="177" type="line"/>
      <point x="270" y="312" type="line"/>
      <point x="417" y="177" type="line"/>
      <point x="479" y="237" type="line"/>
      <point x="333" y="371" type="line"/>
      <point x="479" y="505" type="line"/>
      <point x="417" y="564" type="line"/>
      <point x="270" y="429" type="line"/>
      <point x="123" y="564" type="line"/>
      <point x="61" y="505" type="line"/>
      <point x="206" y="371" type="line"/>
      <point x="61" y="237" type="line"/>
    </contour>
  </outline>
</glyph>
<glyph name="nine.tosf" format="1">
  <advance width="540"/>
  <outline>
    <contour>
      <point x="262" y="590" type="curve" smooth="yes"/>
      <point x="125" y="590"/>
      <point x="39" y="498"/>
      <point x="39" y="354" type="curve" smooth="yes"/>
      <point x="39" y="231"/>
      <point x="116" y="153"/>
      <point x="238" y="153" type="curve" smooth="yes"/>
      <point x="289" y="153"/>
      <point x="341" y="175"/>
      <point x="380" y="212" type="curve"/>
      <point x="369" y="59"/>
      <point x="306" y="-21"/>
      <point x="192" y="-21" type="curve" smooth="yes"/>
      <point x="163" y="-21"/>
      <point x="133" y="-17"/>
      <point x="89" y="-5" type="curve"/>
      <point x="77" y="-97" type="line"/>
      <point x="120" y="-109"/>
      <point x="158" y="-115"/>
      <point x="196" y="-115" type="curve" smooth="yes"/>
      <point x="390" y="-115"/>
      <point x="493" y="23"/>
      <point x="493" y="274" type="curve" smooth="yes"/>
      <point x="493" y="481"/>
      <point x="412" y="590"/>
    </contour>
    <contour>
      <point x="262" y="239" type="curve" smooth="yes"/>
      <point x="190" y="239"/>
      <point x="151" y="281"/>
      <point x="151" y="357" type="curve" smooth="yes"/>
      <point x="151" y="443"/>
      <point x="191" y="494"/>
      <point x="262" y="494" type="curve" smooth="yes"/>
      <point x="341" y="494"/>
      <point x="379" y="431"/>
      <point x="383" y="298" type="curve"/>
      <point x="351" y="262"/>
      <point x="303" y="239"/>
    </contour>
  </outline>
</glyph>
<glyph name="one.numerator" format="1">
  <advance width="291"/>
  <outline>
    <contour>
      <point x="132" y="200" type="line"/>
      <point x="231" y="200" type="line"/>
      <point x="231" y="746" type="line"/>
      <point x="159" y="746" type="line"/>
      <point x="14" y="649" type="line"/>
      <point x="11" y="634" type="line"/>
      <point x="31" y="589" type="line"/>
      <point x="46" y="589" type="line"/>
      <point x="132" y="636" type="line"/>
    </contour>
  </outline>
</glyph>
<glyph name="period.tab" format="1">
  <advance width="270"/>
  <outline>
    <contour>
      <point x="134" y="-5" type="curve" smooth="yes"/>
      <point x="181" y="-5"/>
      <point x="204" y="16"/>
      <point x="204" y="61" type="curve" smooth="yes"/>
      <point x="204" y="105"/>
      <point x="181" y="126"/>
      <point x="134" y="126" type="curve" smooth="yes"/>
      <point x="87" y="126"/>
      <point x="66" y="106"/>
      <point x="66" y="61" type="curve" smooth="yes"/>
      <point x="66" y="16"/>
      <point x="87" y="-5"/>
    </contour>
  </outline>
</glyph>
<glyph name="plus.tab" format="1">
  <advance width="540"/>
  <outline>
    <contour>
      <point x="44" y="328" type="line"/>
      <point x="226" y="328" type="line"/>
      <point x="226" y="163" type="line"/>
      <point x="314" y="163" type="line"/>
      <point x="314" y="328" type="line"/>
      <point x="496" y="328" type="line"/>
      <point x="496" y="412" type="line"/>
      <point x="314" y="412" type="line"/>
      <point x="314" y="577" type="line"/>
      <point x="226" y="577" type="line"/>
      <point x="226" y="412" type="line"/>
      <point x="44" y="412" type="line"/>
    </contour>
  </outline>
</glyph>
<glyph name="seven.tf" format="1">
  <advance width="540"/>
  <outline>
    <contour>
      <point x="215" y="-15" type="line"/>
      <point x="120" y="0" type="line"/>
      <point x="120" y="16" type="line"/>
      <point x="370" y="643" type="line"/>
      <point x="65" y="643" type="line"/>
      <point x="62" y="727" type="line"/>
      <point x="75" y="740" type="line"/>
      <point x="468" y="740" type="line"/>
      <point x="484" y="676" type="line"/>
      <point x="484" y="648" type="line"/>
      <point x="237" y="1" type="line"/>
    </contour>
  </outline>
</glyph>
<glyph name="six.numerator" format="1">
  <advance width="405"/>
  <outline>
    <contour>
      <point x="209" y="193" type="curve" smooth="yes"/>
      <point x="314" y="193"/>
      <point x="381" y="267"/>
      <point x="381" y="381" type="curve" smooth="yes"/>
      <point x="381" y="479"/>
      <point x="321" y="540"/>
      <point x="226" y="540" type="curve" smooth="yes"/>
      <point x="191" y="540"/>
      <point x="154" y="527"/>
      <point x="125" y="504" type="curve"/>
      <point x="136" y="617"/>
      <point x="182" y="675"/>
      <point x="261" y="675" type="curve" smooth="yes"/>
      <point x="284" y="675"/>
      <point x="309" y="671"/>
      <point x="343" y="661" type="curve"/>
      <point x="353" y="740" type="line"/>
      <point x="317" y="750"/>
      <point x="286" y="755"/>
      <point x="259" y="755" type="curve" smooth="yes"/>
      <point x="111" y="755"/>
      <point x="32" y="645"/>
      <point x="32" y="445" type="curve" smooth="yes"/>
      <point x="32" y="281"/>
      <point x="94" y="193"/>
    </contour>
    <contour>
      <point x="209" y="277" type="curve" smooth="yes"/>
      <point x="151" y="277"/>
      <point x="124" y="326"/>
      <point x="122" y="432" type="curve"/>
      <point x="147" y="457"/>
      <point x="181" y="474"/>
      <point x="208" y="474" type="curve" smooth="yes"/>
      <point x="262" y="474"/>
      <point x="290" y="442"/>
      <point x="290" y="379" type="curve" smooth="yes"/>
      <point x="290" y="315"/>
      <point x="260" y="277"/>
    </contour>
  </outline>
</glyph>
<glyph name="six.tf" format="1">
  <advance width="540"/>
  <outline>
    <contour>
      <point x="280" y="-11" type="curve" smooth="yes"/>
      <point x="416" y="-11"/>
      <point x="503" y="88"/>
      <point x="503" y="243" type="curve" smooth="yes"/>
      <point x="503" y="377"/>
      <point x="425" y="462"/>
      <point x="304" y="462" type="curve" smooth="yes"/>
      <point x="252" y="462"/>
      <point x="200" y="439"/>
      <point x="161" y="402" type="curve"/>
      <point x="173" y="570"/>
      <point x="236" y="657"/>
      <point x="349" y="657" type="curve" smooth="yes"/>
      <point x="380" y="657"/>
      <point x="411" y="652"/>
      <point x="453" y="641" type="curve"/>
      <point x="465" y="733" type="line"/>
      <point x="421" y="745"/>
      <point x="383" y="751"/>
      <point x="346" y="751" type="curve" smooth="yes"/>
      <point x="152" y="751"/>
      <point x="48" y="602"/>
      <point x="48" y="330" type="curve" smooth="yes"/>
      <point x="48" y="108"/>
      <point x="130" y="-11"/>
    </contour>
    <contour>
      <point x="279" y="376" type="curve" smooth="yes"/>
      <point x="352" y="376"/>
      <point x="391" y="329"/>
      <point x="391" y="240" type="curve" smooth="yes"/>
      <point x="391" y="143"/>
      <point x="350" y="86"/>
      <point x="280" y="86" type="curve" smooth="yes"/>
      <point x="199" y="86"/>
      <point x="160" y="157"/>
      <point x="158" y="316" type="curve"/>
      <point x="190" y="352"/>
      <point x="238" y="376"/>
    </contour>
  </outline>
</glyph>
<glyph name="six.tosf" format="1">
  <advance width="540"/>
  <outline>
    <contour>
      <point x="280" y="-14" type="curve" smooth="yes"/>
      <point x="416" y="-14"/>
      <point x="503" y="79"/>
      <point x="503" y="223" type="curve" smooth="yes"/>
      <point x="503" y="346"/>
      <point x="426" y="424"/>
      <point x="304" y="424" type="curve" smooth="yes"/>
      <point x="252" y="424"/>
      <point x="201" y="402"/>
      <point x="161" y="365" type="curve"/>
      <point x="172" y="518"/>
      <point x="236" y="598"/>
      <point x="349" y="598" type="curve" smooth="yes"/>
      <point x="378" y="598"/>
      <point x="408" y="593"/>
      <point x="453" y="581" type="curve"/>
      <point x="465" y="674" type="line"/>
      <point x="421" y="686"/>
      <point x="383" y="692"/>
      <point x="346" y="692" type="curve" smooth="yes"/>
      <point x="151" y="692"/>
      <point x="48" y="554"/>
      <point x="48" y="303" type="curve" smooth="yes"/>
      <point x="48" y="96"/>
      <point x="130" y="-14"/>
    </contour>
    <contour>
      <point x="279" y="338" type="curve" smooth="yes"/>
      <point x="351" y="338"/>
      <point x="391" y="296"/>
      <point x="391" y="220" type="curve" smooth="yes"/>
      <point x="391" y="134"/>
      <point x="350" y="83"/>
      <point x="280" y="83" type="curve" smooth="yes"/>
      <point x="201" y="83"/>
      <point x="162" y="145"/>
      <point x="158" y="279" type="curve"/>
      <point x="190" y="314"/>
      <point x="238" y="338"/>
    </contour>
  </outline>
</glyph>
<glyph name="sterling.tab" format="1">
  <advance width="540"/>
  <outline>
    <contour>
      <point x="33" y="325" type="line"/>
      <point x="141" y="325" type="line"/>
      <point x="141" y="99" type="line"/>
      <point x="33" y="99" type="line"/>
      <point x="33" y="0" type="line"/>
      <point x="496" y="0" type="line"/>
      <point x="496" y="98" type="line"/>
      <point x="255" y="98" type="line"/>
      <point x="255" y="325" type="line"/>
      <point x="422" y="325" type="line"/>
      <point x="422" y="415" type="line"/>
      <point x="255" y="415" type="line"/>
      <point x="255" y="528" type="line" smooth="yes"/>
      <point x="255" y="618"/>
      <point x="283" y="651"/>
      <point x="359" y="651" type="curve" smooth="yes"/>
      <point x="397" y="651"/>
      <point x="455" y="642"/>
      <point x="502" y="628" type="curve"/>
      <point x="510" y="720" type="line"/>
      <point x="441" y="738"/>
      <point x="386" y="747"/>
      <point x="338" y="747" type="curve" smooth="yes"/>
      <point x="199" y="747"/>
      <point x="141" y="678"/>
      <point x="141" y="531" type="curve" smooth="yes"/>
      <point x="141" y="415" type="line"/>
      <point x="33" y="415" type="line"/>
    </contour>
  </outline>
</glyph>
<glyph name="three.osf" format="1">
  <advance width="426"/>
  <outline>
    <contour>
      <point x="156" y="-173" type="curve" smooth="yes"/>
      <point x="308" y="-172"/>
      <point x="397" y="-97"/>
      <point x="397" y="30" type="curve" smooth="yes"/>
      <point x="397" y="132"/>
      <point x="347" y="197"/>
      <point x="255" y="217" type="curve"/>
      <point x="255" y="221" type="line"/>
      <point x="334" y="242"/>
      <point x="377" y="305"/>
      <point x="377" y="402" type="curve" smooth="yes"/>
      <point x="377" y="524"/>
      <point x="304" y="586"/>
      <point x="156" y="586" type="curve" smooth="yes"/>
      <point x="114" y="586"/>
      <point x="73" y="581"/>
      <point x="32" y="570" type="curve"/>
      <point x="37" y="481" type="line"/>
      <point x="44" y="481" type="line"/>
      <point x="87" y="490"/>
      <point x="119" y="494"/>
      <point x="147" y="494" type="curve" smooth="yes"/>
      <point x="226" y="494"/>
      <point x="262" y="457"/>
      <point x="262" y="380" type="curve" smooth="yes"/>
      <point x="262" y="298"/>
      <point x="220" y="260"/>
      <point x="122" y="260" type="curve" smooth="yes"/>
      <point x="97" y="260" type="line"/>
      <point x="97" y="172" type="line"/>
      <point x="122" y="172" type="line" smooth="yes"/>
      <point x="235" y="172"/>
      <point x="282" y="129"/>
      <point x="282" y="38" type="curve" smooth="yes"/>
      <point x="282" y="-43"/>
      <point x="236" y="-84"/>
      <point x="140" y="-84" type="curve" smooth="yes"/>
      <point x="103" y="-84"/>
      <point x="67" y="-79"/>
      <point x="41" y="-70" type="curve"/>
      <point x="35" y="-70" type="line"/>
      <point x="35" y="-160" type="line"/>
      <point x="78" y="-169"/>
      <point x="117" y="-173"/>
    </contour>
  </outline>
</glyph>
<glyph name="three.tosf" format="1">
  <advance width="540"/>
  <outline>
    <contour>
      <point x="208" y="-173" type="curve" smooth="yes"/>
      <point x="374" y="-173"/>
      <point x="472" y="-97"/>
      <point x="472" y="30" type="curve" smooth="yes"/>
      <point x="472" y="132"/>
      <point x="417" y="197"/>
      <point x="313" y="217" type="curve"/>
      <point x="313" y="221" type="line"/>
      <point x="401" y="242"/>
      <point x="449" y="305"/>
      <point x="449" y="402" type="curve" smooth="yes"/>
      <point x="449" y="524"/>
      <point x="369" y="586"/>
      <point x="208" y="586" type="curve" smooth="yes"/>
      <point x="162" y="586"/>
      <point x="117" y="581"/>
      <point x="72" y="570" type="curve"/>
      <point x="77" y="481" type="line"/>
      <point x="85" y="481" type="line"/>
      <point x="132" y="490"/>
      <point x="168" y="494"/>
      <point x="199" y="494" type="curve" smooth="yes"/>
      <point x="289" y="494"/>
      <point x="331" y="457"/>
      <point x="331" y="380" type="curve" smooth="yes"/>
      <point x="331" y="298"/>
      <point x="280" y="260"/>
      <point x="169" y="260" type="curve" smooth="yes"/>
      <point x="143" y="260" type="line"/>
      <point x="143" y="172" type="line"/>
      <point x="169" y="172" type="line" smooth="yes"/>
      <point x="298" y="172"/>
      <point x="354" y="129"/>
      <point x="354" y="38" type="curve" smooth="yes"/>
      <point x="354" y="-43"/>
      <point x="300" y="-84"/>
      <point x="192" y="-84" type="curve" smooth="yes"/>
      <point x="151" y="-84"/>
      <point x="111" y="-79"/>
      <point x="82" y="-70" type="curve"/>
      <point x="75" y="-70" type="line"/>
      <point x="75" y="-160" type="line"/>
      <point x="122" y="-169"/>
      <point x="165" y="-173"/>
    </contour>
  </outline>
</glyph>
<glyph name="two.tf" format="1">
  <advance width="540"/>
  <outline>
    <contour>
      <point x="61" y="0" type="line"/>
      <point x="471" y="0" type="line"/>
      <point x="471" y="98" type="line"/>
      <point x="178" y="98" type="line"/>
      <point x="178" y="136" type="line" smooth="yes"/>
      <point x="178" y="205"/>
      <point x="204" y="244"/>
      <point x="317" y="322" type="curve" smooth="yes"/>
      <point x="430" y="398"/>
      <point x="474" y="465"/>
      <point x="474" y="561" type="curve" smooth="yes"/>
      <point x="474" y="686"/>
      <point x="401" y="750"/>
      <point x="260" y="750" type="curve" smooth="yes"/>
      <point x="208" y="750"/>
      <point x="146" y="741"/>
      <point x="78" y="723" type="curve"/>
      <point x="91" y="631" type="line"/>
      <point x="144" y="646"/>
      <point x="190" y="653"/>
      <point x="228" y="653" type="curve" smooth="yes"/>
      <point x="316" y="653"/>
      <point x="358" y="619"/>
      <point x="358" y="548" type="curve" smooth="yes"/>
      <point x="358" y="485"/>
      <point x="326" y="442"/>
      <point x="236" y="384" type="curve" smooth="yes"/>
      <point x="107" y="304"/>
      <point x="61" y="230"/>
      <point x="61" y="112" type="curve" smooth="yes"/>
    </contour>
  </outline>
</glyph>
<glyph name="uni030F.cap" format="1">
  <advance width="394"/>
  <outline>
    <contour>
      <point x="239" y="783" type="move" name="_topUC"/>
    </contour>
    <contour>
      <point x="197" y="799" type="line"/>
      <point x="125" y="949" type="line"/>
      <point x="28" y="949" type="line"/>
      <point x="132" y="787" type="line"/>
    </contour>
    <contour>
      <point x="359" y="799" type="line"/>
      <point x="288" y="949" type="line"/>
      <point x="190" y="949" type="line"/>
      <point x="295" y="787" type="line"/>
    </contour>
  </outline>
</glyph>
<glyph name="yen.tab" format="1">
  <advance width="540"/>
  <outline>
    <contour>
      <point x="60" y="247" type="line"/>
      <point x="215" y="247" type="line"/>
      <point x="215" y="166" type="line"/>
      <point x="60" y="166" type="line"/>
      <point x="60" y="84" type="line"/>
      <point x="215" y="84" type="line"/>
      <point x="215" y="0" type="line"/>
      <point x="327" y="0" type="line"/>
      <point x="327" y="84" type="line"/>
      <point x="480" y="84" type="line"/>
      <point x="480" y="166" type="line"/>
      <point x="327" y="166" type="line"/>
      <point x="327" y="247" type="line"/>
      <point x="480" y="247" type="line"/>
      <point x="480" y="329" type="line"/>
      <point x="364" y="329" type="line"/>
      <point x="555" y="740" type="line"/>
      <point x="431" y="740" type="line"/>
      <point x="276" y="367" type="line"/>
      <point x="267" y="367" type="line"/>
      <point x="112" y="740" type="line"/>
      <point x="-14" y="740" type="line"/>
      <point x="177" y="329" type="line"/>
      <point x="60" y="329" type="line"/>
    </contour>
  </outline>
</glyph>
<glyph name="zero.denominator" format="1">
  <advance width="444"/>
  <outline>
    <contour>
      <point x="222" y="-7" type="curve"/>
      <point x="346" y="-7"/>
      <point x="412" y="90"/>
      <point x="412" y="273" type="curve" smooth="yes"/>
      <point x="412" y="456"/>
      <point x="346" y="554"/>
      <point x="222" y="554" type="curve" smooth="yes"/>
      <point x="99" y="554"/>
      <point x="32" y="456"/>
      <point x="32" y="273" type="curve" smooth="yes"/>
      <point x="32" y="90"/>
      <point x="99" y="-7"/>
    </contour>
    <contour>
      <point x="222" y="78" type="curve" smooth="yes"/>
      <point x="160" y="78"/>
      <point x="132" y="139"/>
      <point x="132" y="273" type="curve" smooth="yes"/>
      <point x="132" y="407"/>
      <point x="161" y="470"/>
      <point x="222" y="470" type="curve" smooth="yes"/>
      <point x="284" y="470"/>
      <point x="312" y="407"/>
      <point x="312" y="273" type="curve" smooth="yes"/>
      <point x="312" y="138"/>
      <point x="285" y="78"/>
    </contour>
  </outline>
</glyph>
